<?xml version="1.0" encoding="UTF-8"?>
<svg id="uuid-9e2d9008-0771-40c1-a7c3-e81661bbc5c0" data-name="Layer 1" xmlns="http://www.w3.org/2000/svg" xmlns:xlink="http://www.w3.org/1999/xlink" viewBox="0 0 1125 869">
  <defs>
    <pattern id="uuid-512641d7-6228-4536-a574-4bb87ead74e4" data-name="Nueva muestra de motivo 6" x="0" y="0" width="7" height="7" patternTransform="translate(0 -780)" patternUnits="userSpaceOnUse" viewBox="0 0 7 7">
      <g>
        <rect width="7" height="7" fill="none" stroke-width="0"/>
        <path d="M7,1.37v4.27c-.75,0-1.37.61-1.37,1.37H1.37c0-.76-.61-1.37-1.37-1.37V1.37c.75,0,1.37-.61,1.37-1.37h4.27c0,.76.61,1.37,1.37,1.37ZM4.87,3.5c0-.75-.61-1.37-1.37-1.37s-1.37.61-1.37,1.37.61,1.37,1.37,1.37,1.37-.61,1.37-1.37Z" fill="none" stroke-width="0"/>
        <circle cx="3.5" cy="3.5" r="1.37" fill="#fff" opacity=".76" stroke-width="0"/>
        <path d="M5.63,0h0c0,.76.61,1.37,1.37,1.37V0h-1.37Z" fill="#fff" opacity=".76" stroke-width="0"/>
        <path d="M1.37,0H0v1.37c.75,0,1.37-.61,1.37-1.37Z" fill="#fff" opacity=".76" stroke-width="0"/>
        <path d="M5.63,7h1.37v-1.37c-.75,0-1.37.61-1.37,1.37Z" fill="#fff" opacity=".76" stroke-width="0"/>
        <path d="M0,5.63v1.37h1.37c0-.76-.61-1.37-1.37-1.37Z" fill="#fff" opacity=".76" stroke-width="0"/>
      </g>
    </pattern>
  </defs>
  <rect x="-162" y="-53" width="1457" height="929" stroke-width="0"/>
  <g>
    <path d="M684.48,675.38v1.98c-.56-.26-1.67-.65-1.88-.65,0,9.61-2.53,16.23-4.96,23.74-1.97,5.95-2.97,14.77-9.69,14.77-2.76,0-5.18-3.82-5.18-7.24,0-1.71.32-2.38.22-3.3-1.32-1.19-1.32-3.3-1.32-5.28,0-.52,1.98-2.65,2.21-2.65,0,0,2.2-5.68,2.2-5.93,0-1.45-1.66-4.75-1.66-6.87,0-6.46,3.97-6.06,7.16-8.31,2.53-1.72,5.94-6.74,7.72-8.85.55-.66.21-2.9.65-3.95,3.75.53,3.42,9.1,4.52,12.53ZM776.33,589.86c0,1.85,1.21,3.7,2.76,3.7,2.07,0,3.51-3.02,3.51-5.41,0-4.21-3.19-5.81-4.74-8.96,0,3.96-1.54,6.86-1.54,10.68ZM858.04,635.79c0-1.32-.55-3.16.57-3.69v-5.69c0-1.32-1.56-1.72-2.21-2.5-1.21-1.46-2.54-2.24-2.54-5.02-1.21,0-2.09-.39-2.09-2.11l.44-1.32c-.22-.53-.56-1.19-.99-1.19h-.87c0-.14.21-.53.21-.65,0-1.99-1.87-2.65-3.52-3.31-3.09-1.2-4.3-2.9-6.39-5.41-1.09-1.32-1.87-2.91-3.52-3.56-.44-.13-1,0-1.2-.66-.89-2.1-1.67-4.09-4.08-5.01h-3.63c-.89-.54-1.11-1.2-2.21-1.2h-.66v1.06c.33,1.33,2.09,5.02,2.97,5.28.99.25,2.09,0,2.52,1.18.67,1.58,1,2.38,1.66,3.96.77,1.85,3.31,1.32,4.08,4.36.22,1.07.98,4.21,1.54,4.62.32.27,1.65.4,1.76.67.22.4,0,1.18.34,1.18s1.65,2.63,1.86,3.3c1.22,3.04,2.1,5.41,4.3,8.05,1.98,2.37,3.98,3.43,6.05,5.94.12.12,2.1,3.56,2.65,3.56.77,0,2.97-.39,2.97-1.85ZM868.29,612.57c0,.65,1.1,5.4,1.65,5.53.56.13,1.21.13,1.43.8,0,.13-.11.53-.11.66,1.44,2.64-.33,7.26,3.75,7.26.88,0,1.43-.81,2.32-.66.09.52,0,1.97.21,1.97.33,0,.54.66.87.66,1.33,0,1.87-1.44,2.75-1.44,1.88,0,3.09,1.57,4.85,2.12,0,.79.33,1.84,1.42,1.84,1.44,0,1.66-1.58,3.43-2.12,0-1.46,1.32-3.41,1.32-4.49,0-.65-.54-.92-.54-1.83,0-.8,1.09-2.78,2.42-3.04,0-2.24.89-3.03,1.44-5.94l.54-1.32c.34-.14.78-.26,1.11-.26,1.2,0,2.09.64,2.42-1.33-1.98,0-4.96-6.59-4.96-8.58,0-.4.43-.8.77-.92-.11-.4-.34-.79-.44-1.19,0,0,2.98-1.44,3.19-1.85-.21,0-.44-.39-.44-.66,0-1.18,2.43-.39,2.43-1.58,0-2.64-4.63-1.05-4.63-3.82,0-1.97.21-3.3-1.66-3.3-1.76,0-4.19,5.01-5.07,7.12-.43,1.06-2.97.41-3.96,1.58-.23.27-.33.93-.68,1.06-.53.25-.42.53-1.09.92,0,0-1.2,1.06-.76,1.59-.89,1.05-.89,2.37-2.53,2.77-1.21.26-2.33.26-3.09,1.17-1.53,1.86-1.1,5.95-4.51,5.95-1.54,0-3.85-.93-3.85,1.32ZM907.04,614.14c1.88,0,2.65-.51,4.2-.51,1.43,0,2.42.9,3.85.9,2.2,0,2.97-2.22,3.3-4.21.34,0,.44-.66.55-1.06h-.66c-1.34,1.06-2.86,2.25-3.52,3.05h-.89l-7.7-1.6c-2.86,0-4.18,4.37-4.18,7.52,0,.8-.89,1.45-1,1.99-.77,3.03-1.98,4.22-1.98,7.12,0,1.58,1.53,1.58,2.2,1.71v6.34c0,.79.88,1.71,1.75,1.71,1.23,0,1.66-4.62,1.66-5.27,0-1.72-.98-2.63-.98-4.36,0-.93.87-1.59,1.65-1.59.32,0,.55.13.87,0l-.44,2.78c0,1.71,1.77,2.37,1.77,4.08,0,.39.11.8,0,1.19h1.42c0-1.45,2.43-1.31,2.43-2.76-.44-.14-1.54-1.58-1.54-2.38,0-.27.33-.52.43-.79-.65-.4-2.75-5.14-2.75-5.54,3.07,0,3.3-2.9,5.84-3.82v-1.06c-.67-.14-6.5,1.98-6.61,2.36l.23-.52c-.45.67-.56,1.32-1.22,1.32-1.65,0-2.31-2.51-2.31-4.48,0-2.63,1.76-2.12,3.62-2.12ZM885.9,647.52c1.33,0,1.22.93,2.31.93.22,0,1-.93,1.2-1.44-.77-.38-.77-.79-1.75-1.2-.99-.39-1.87.68-2.63-.25-.22-.25-.22-1.19-.9-1.19-1.98,0-3.4-.29-4.61-1.72.22.12,3.96-.27,4.08-.92h-.88l-3.31.52c-1.99,0-2.76-2.37-4.96-2.37-1.31,0-1.64,1.98-3.3,1.98-3.63,0-5.06-4.22-8.37-4.22-.67,0-1.1.79-1.76.79-.33,0-.56-.54-.89-.54-.66,0-2.64,2.38-2.75,2.78,1.65,0,2.54,1.58,3.64,2.9,1.09,1.34,2.75,0,4.4.68,2.21.77,3.98.91,6.07.91,1.09,0,1.44,1.72,2.76,1.72,4.3,0,8.04.26,11.67,1.99-.11-.41-.33-1.33,0-1.33ZM909.04,649.25c1.43-.52,2.41-.91,3.19-2.63-.99.51-1.54,1.31-3.19,1.31s-2.42-.93-4.41-.93c-.77,0-1.99-.14-1.99.93,0,1.44,1.66,1.32,2.43,1.32h3.97ZM897.14,647.13c0,.4-.11.68-.11,1.06-.54-.27-1.1-.52-2.09-.52s-1.88-.14-1.88,1.31c0,.53,1.33.93,2.21.93,1.11,0,1.55-.8,2.66-1.32l.87.52h.99c-.22-.26,0-.92,0-1.98h-2.64ZM903.42,650.83h-1.1c-.77,0-2.09-.26-2.09.81,0,1.3,1.77,1.44,2.86,1.44,0,.4.11,1.71.66,1.71h.45c.33,0,.88-.51.88-.93,0-1.58-1.65-1.19-1.65-3.04ZM891.52,647h-1v1.33c0,.39.56.91.89.91.55,0,.99-.52,1.11-1.32-.44-.26-.44-.93-1-.93ZM918.73,651.11c1.75,0,5.39-1.06,6.5-3.05-.99-.77-5.85-.25-6.94,1.07-.22.26-.22,1.04-.55,1.18-1.65.65-3.74.65-3.74,3.55,0,.54.34,1.19.77,1.19,1.21,0,3.09-1.58,3.63-2.24.34-.4-.22-1.71.34-1.71ZM949.12,637.89c0-.91-.22-.38-.44-1.43-.77.11-.66,1.31-.66,2.25,0,.77-1.11.91-1.11,2.23,0,.4.32,1.06.65,1.06.89,0,.67-1.46.67-2.79.54,0,.88-.49.88-1.31ZM921.93,627.86c0,1.06,1.31,2.51,1.96,2.51.34,0,1.12-1.45,1.12-1.71,0-1.32-3.08-2.38-3.08-.8ZM927.64,627.86s1.54.54,1.98.54h2.54c1.54,0,2.3,1.32,3.85,1.32.22,0,.66,0,.66-.26,0-1.06-1.21-1.33-1.32-2.38l-.33.13c-.66,0-1.42.39-1.64-.54h-4.96c-.21.28-.77.54-.77,1.19ZM927.21,606.89c-.88.54-.99,1.6-.99,2.65,0,1.73.88,2.24.88,3.68v1.72c0,.79.33,2.5,1.43,2.5-.55-.91-.78-1.45-1.21-2.24v-.93c.87,0,2.09-.14,2.53-.26-.11-1.06-.88-1.31-.88-1.99,0-.76,1.1-.91,1.1-1.7-1.88-.53-2.64-1.58-2.86-3.43ZM992.73,636.46c.29,1.53,1.91,1.38,2.89,2.29.03.02.03.04.06.08.08.08.17.16.24.26l-.21-.24c.48.42,1.32.9,1.64.9,2.31,0,3.3-1.45,5.29-1.98,0-2.38,2.32-1.85,2.32-4.64,0-.78-.33-1.97-.99-1.97-1.55,0-.89,2.9-2.43,3.82-.99.51-2.64.4-4.3,1.06,0,0-.99.52-1.21.4h-3.3ZM987.22,637.64c-2.64-1.58-2.53-5.15-6.06-6.47-.55-.13-1.43-.26-1.43-1.32-1.31,0-1.97-1.85-3.3-1.85-2.45,0-5.83-1.36-7.49-2.77v-.14c-.05-.01-.15-.04-.22-.07-.11-.1-.24-.21-.33-.32l.24.3c-.55-.17-1.44-.53-1.9-1.08h-2.99c-.64-.41-1.52-1.99-2.86-2.51-.33-.15-1.21,0-1.3-.67-1.32.27-2.65,2.64-3.64,3.04-1.54.54-1.77.67-2.64,1.72-.22.27-1.22,2.23-1.98,2.23-.67,0-2.21-2.09-2.21-2.64-.99,0-1.65-.51-1.65-1.17v-4.75c-1.98-.53-3.42-2.64-5.29-2.64-1.98,0-2.75,2.24-4.07,2.24-.66,0-1.54.4-1.54,1.17,0,1.86,2.65,1.06,3.42,2.92.1.39.33,1.05.67,1.18.54.13.98.4,1.53.4,1.22,0,1.98-.13,3.19-.53h.77c-.77,1.58-4.07,1.31-5.61,2.24.22,1.06,1.43.52,1.98,1.57.55,1.06,0,1.6.55,2.92.11.4.77.4,1.1.4.88,0,1.32-1.32,1.66-2.38v1.19c1.75-.66,2.43,2.77,4.08,2.77,1.76,0,4.73.66,5.95,1.32,1.1.67,4.19,2.12,4.61,3.7.56,1.98-.1,3.83,1.45,5.67-.67.4-2.76,1.06-2.76,2.64,0,1.06.99,1.06,1.75,1.06h2.33c0-.66,1.2-.79,1.65-.79,2.85,0,3.63,4.1,6.49,4.1h4.2c0-.94.98-1.45.55-3.18,1.55-.92,1.32-3.29,4.08-3.29,3.64,0,5.62,3.68,7.82,6.33.22.27,1.1.51,1.1,1.06,0,1.44,2.53,2.89,4.19,3.29h2.87c.22.27,1.87,1.59,2.09,1.59h.66c0-.93.77-1.59,1.44-2.12-.32-.13-1.99.13-2.19-.52-.23-.53-.45-1.33-1.11-1.59-.43-.13-1.09.4-1.32-.25-.23-.54-.56-1.46-.89-1.46-.78,0-2.09-.66-2.41-1.31-.89-1.58-.67-2.51-1.77-3.84-.22-.26-2.1-2.49-2.1-3.17,0-1.18,2.1-.65,2.1-2.1,0-2.91-2.31-1.45-3.42-2.11ZM1005.62,629.05c-1.22-1.45-2.2-3.03-4.3-3.82.33,1.06,1.1.92,1.98,1.59,1.43,1.04,1.22,2.52,2.65,3.29-.22,1.31-.22,2.25,1.1,2.51.21.25.43,0,.65,0-.1-.26,0-.67,0-.93,0-1.84-1.2-1.58-2.09-2.64ZM1012.77,636.06c-.21,1.33.23,2.65,1.54,2.9v1.06c0,.4.34.92.66.92s.77-.66.77-1.06-2.31-3.3-2.98-3.82ZM1034.03,653.74c-.1.79.66,2.76,1.77,2.76-.11-.26,0-.52,0-.78,0-1.06-.88-1.32-1.77-1.98ZM1029.19,651.63c0,1.57,1.76,2.09,3.08,2.09.12,0,.45-.25.56-.25-.78-1.33-1.88-1.84-3.64-1.84ZM1029.74,646.49c.11,1.04,2.09,4.2,3.19,4.2-.56-1.96-1.66-3.16-3.19-4.2ZM1023.24,643.71h-.22c0,1.45,2.53,2.5,3.41,2.5.33,0,.66-.13.88-.27-.66-1.18-2.86-1.98-3.86-2.64l-.21.4ZM1018.06,640.02l.55.4c0,.12-.44.12-.55.12l1.65,1.32h.99c-.67-1.18-1.43-.79-2.65-1.84ZM986.23,779.22c-.1,0-6.05-2.11-6.05,0,0,2.78,3.64,12.53,6.93,12.53,2.22,0,5.18-6.98,5.18-9.88,0-1.59-.88-2.36-1.22-3.95-1.55.52-3.41,1.3-4.85,1.3ZM991.74,776.58c.11-.65.33-.91.33-2.23-.33.13-.89.13-1.43,0,0,1.05.1,1.84,1.1,2.23ZM954.85,757.19c.99,1.19,2.64.93,3.85,0-1.55-.93-1.76-1.18-3.85,0ZM937.56,660.46h1.09v-1.97c-1.64-.12-2.41.14-4.4.66.45.53,1.99,1.31,3.31,1.31ZM1005.62,711.8c-2.09-2.51-6.27-4.76-6.27-10.02-1.43,0-3.19,0-3.63-1.72-.45-1.85-.67-4.36-1.99-5.94-1.86-2.25-6.61-3.43-7.49-6.6-.88-3.31-1.76-5.01-2.74-8.57-.55-2.13-.55-6.33-1.88-7.39-.44-.26-2.53-1.06-3.63-1.45-1.22-1.06-.66-3.43-1.1-5.27-.67-2.52-2.1-4.89-2.42-8.46-1.88,1.19-1.33,2.91-3.09,4.49v11.9c-.54,3.01-1.22,10.81-4.62,10.81-2.09,0-2.64-2.91-4.18-3.57-2.75-1.32-4.4-1.98-7.38-3.29-.43-.13-.43-2.12-1.09-2.64-.65-.53-2.21-.27-2.21-1.31l1.33-6.61c.88-.79,2.52-.91,2.52-2.64,0-1.06-1.54-2.39-2.19-2.39-1.21,0-1.66,1.07-3.09,1.07-3.96,0-6.17-1.86-9.91-3.69.22,1.45,1.31,1.84,1.98,3.03-.33.12-1.2.92-1.98.92-1.88,0-6.28,1.19-6.28,3.03s-1.65,2.79-1.65,4.63c0,1.19.33,2.11-.32,3.29-.23-.12-1.1-1.04-1.65-1.04-1,0-1.87.52-2.42,1.45-.23-2.37-1.34-5.01-3.31-5.01-2.32,0-2.87,2.64-5.83,2.64-.23,3.04-2.42,3.56-2.42,7.26-.89,0-1.44-.53-2.31-1.05-.56,1.45,0,3.43-1.22,4.35-.45-.92-1.1-1.45-1.66-2.63-1.09.65-1.43,1.96-1.43,3.3v2.23c0,4.5-9.02,8.18-12.99,8.98-2.09.39-6.06.65-7.38,2.25-1.2,1.43-3.75,4.74-5.83,5.01,0-.4,0-.93-.12-1.32-.45.27-1.21.53-1.21,1.59v7.64c0,3.29,1.34,4.89,1.34,6.87,0,.66.31,1.19,0,1.71-.33-.39-.78-1.05-1-1.71-.34.66-.45,1.19-.67,1.71-.54,1.98,1.67,2.65,2.2,4.63,1.44,5.15,1.77,6.99,3.08,12.8.56,2.37,2.21,4.48,2.21,8.31,0,3.04-2.52,3.96-2.52,5.94,0,1.84,5.29,4.61,7.16,4.61,4.95,0,6.6-4.34,10.46-4.34,1.32,0,1.32-1.06,3.08,0,2.42,0,4.3-.68,6.6-.94.88-6.72,7.82-4.35,13.43-6.59,2.43-.92,3.2-3.02,7.16-3.02,3.63,0,10.14,1.31,11.9,3.95.87,1.46,3.31,7.92,4.07,7.92,0,0-.44,2.37.88,2.37,2.31,0,5.07-6.86,7.06-9.25.1,1.98-.45,8.85-3.21,9.51,0,.66.56,1.31,1.11,1.31,1.65,0,1.76-2.36,2.76-2.9,0-.41.22-.91.22-1.31.43.52,1.09,1.04,1.09,2.64,0,1.32-.45,2.1-.78,2.89h1.32c.89-.25,1.44-.4,2.2-.92,0,.12.12.66.12.66.11,1.71,1.55,3.29,1.55,5.27,0,5.41,7.04,8.84,11.34,8.84,2.76,0,1.89-2.63,4.41-2.9.11.8,4.62,3.82,5.5,3.97.88-6.34,9.91-3.56,11.13-9.64v.26c0-4.62,2.31-8.7,3.19-11.88,1.11-4.21,3.09-5.54,5.07-9.23.55-1.05.22-1.57.77-2.63v-3.7c.98-1.19,1.64-5.28,1.64-8.18,0-3.96-1.1-11.1-2.86-13.87l.12-.39ZM1071.26,779.89c-.55.26-1.1,1.18-1.87,1.18-.67,0-.56-.92-.56-1.85-.34,0-.77-.4-.77-1.3-.99.52-2.64,2.36-2.64,4.34,0,.27-.12.53-.12.8-.87.13-1.54.39-1.98,1.45-.12.39-.12,1.32-.12,1.32,0,0-1.55,2.9-2.08,3.16-1.87,1.06-3.52,4.36-6.18,4.36-.77,0-1.32.79-1.76,1.71-1.11,1.97-4.4,3.82-4.4,7.25,0,.27.33.53.55.53,0,.66,4.29,2.64,4.96,2.64s1.98.66,2.42.66c1.22,0,3.19-1.97,4.2-3.16,0,0,3.07-7.65,3.41-9.25.88,0,3.53-.66,4.06-.66.23-1.59-.32-2.1,0-4.09,1.78,0,3.97-4.88,4.31-6.6-.44-.26-.65-.93-.65-1.99-.35,0-.67-.12-.78-.51ZM1085.35,764.45c-1.77,0-1.65,1.32-3.74,1.32-2.64,0-4.08-1.98-4.08-5.42h-.65c-.56,0-.99.53-.99,1.32h-.66c-.56-.65-1.88-3.56-1.88-4.21,0-.4.34-.53.45-.94-.66-.39-.66-1.31-1.34-2.1-1.09-1.33-2.97-1.45-4.18-3.69.67,3.16,2.19,7.51,4.74,8.05-.11.39-.34.92-.34,1.31,0,1.06.88,1.45,1.21,2.51v-.08c.16.67.45,1.76.45,2.58,0,1.98-.22,3.83-1.33,5.15-.56.66-1.55.79-1.55,2.12,0,2.37,4.08,1.31,4.08,3.95,0,1.59-1.32,2.24-1.32,3.83,0,1.06.66,1.72,1.65,1.72,2.31,0,2.97-2.65,4.07-4.63.22-.39,1.54-1.7,1.54-2.62,0-.4-.44-.93-.44-1.32,0-1.06,1.1-1.45,2.2-1.73.1,0,.21-.39.32-.39l.46.67c1.09-1.99.64-4.77,2.19-6.6-.22-.41-.56-.8-.88-.8ZM1085.68,684.21v-1.57c-.54-.12-1-.54-1.32-1.19-.99.4-2.52.78-2.52,2.5,0,.54,1.43.8,2.32.8s.87.24,1.53-.54ZM1086.24,679.34c0,.38.33,1.18.66,1.18,1.1,0,1.43-1.32,2.74-1.71v-1.19c-.66,0-3.41.14-3.41,1.72ZM920.05,578.44c-.1.34-.02,1.94-.33,2.75-.32.68-2.11.18-2.14,1.79-.6.1-.91.68-.93,1.48-.2,0-.39-.01-.6-.01-.7-.03-.47-1.86-1.78-1.87-1.8-.05-1.35,2.5-3.46,2.45-.22,1.15-.63,1.82-.64,2.96,0,.35.39.81.38,1.15,0,.47-.84,2.64-.04,2.65,1.11.01.97-3.76,1.99-4.89,0,0,.69.93.99,1.06.1-.12.31-.57.31-.57.19.23.4.58,1,.59-.09-.34.01-.68.02-1.03l1.4.05c.1.34.29.8.39,1.15-.3.21-.5.57-.52,1.36-.03,2.19,1.15,4.04,2.55,4.07.3,0,.69.12,1-.08,0,.32.19.93.5.93.7,0,1.11-.68,1.12-1.6.02-1.26-1.18-1.63-1.16-2.44,0-.68.51-.9.93-1.59.2.35.48.59.58.93l-.05-.28c.17.64.88,2.61,1.23,2.71.03-1.95,1.25-2.61,1.28-3.88,0-1.03-1.61-7.84-2.39-8.79-.4-.45-.9-1.04-1.6-1.05ZM896.58,582.99l.7.03c1.22-.9,3.14-2.35,3.59-4.98.8.01,1.51-.2,1.73-1.22.5,0,.61-.35,1.01-.67-.4-.47-.89-.72-.88-1.86-.3.33-.32.9-.53,1.47-1.14,2.5-4.58,3.82-5.63,7.23ZM902.15,558.78c-.02.68,1.77,2.09,2.18,2.1.3,0,.51-.45.72-.78h.59s-.01,1.16-.01,1.16c-.2.24-.61.56-.62,1.25-.02.59.78,1.63,1.47,1.64.61.02,1.02-.66,1.62-.66,1.41.02,1.47,2.55,2.88,2.59-.28-.93-.58-1.41-.07-2.19.58,1.04,2.98,2.12,3.56,3.52.1.34.19.92.49.93.19,0,.4-.46.41-.69,0-.34,0-.56,0-.91-.69-.01-1.3-.48-1.28-1.41-.2.11-.7.22-.7,0,.01-.6.5-.68.62-1.37-.2,0-.39-.24-.59-.24-.41,0-.52.8-.92.78-.61,0-.87-2.64-2.08-2.68-.59-.01-1.11.43-1.11.89,0,.12,0,.47-.01.57-1.1-.59-2.46-3.5-2.43-5.21.02-2.4,1.84-2.58,1.88-5.12.03-1.95-1.26-3.69-1.23-5.19,0-.22-.2-.59-.2-.8.01-.12-.18-.48-.18-.58-.4.21-.72,1.12-1.32,1.12-.9-.03-.68-2.08-1.79-2.11-.8,0-1.02,1.13-1.02,2.27-.04,1.38.45,2.31.43,3.69-.01,1.04-.24,2.64-.65,3.43-1-.25-.64,2.16-.66,4.01ZM918.98,569.12c-.8-.03-1.39-.5-2.2-.52-.3,0-.6.34-.91.43.18.94,2.4,1.78,2.36,3.38,0,.25-.32.68-.51.68-.11,0-.81-.01-1.32-.02v.69c.09.34.78,1.52,1.49,1.53l-.02.69c-.41.67-.22,1.6.48,1.62.29,0,.6.01.9.01v-.69c-.39-.23-.78-1.39-.85-2.31l1.5.02c.1-.45.31-.79.43-1.47-.11,0-.78-1.06-.78-1.06,0,0,.11-1.15.02-1.82-.2-.02-.4-.02-.61-.02.11-.35.01-.8.01-1.14ZM910.34,571.37c-.13-.18-.28-.37-.43-.39-.2,0-.62.32-.62.56,0,1.04.37,3.23.34,5.19.91-.67,3.25-1.66,3.26-3.62.01-.87-1.76-1.29-2.55-1.74ZM913.38,574.74c-.51.11-1.06,2.97-1.07,3.3-.29,0-.9.33-.9.68-.01.8,1.77,3.02,2.17,3.03.19,0,.61-.34.61-.56,0-.7-.5-.48-.49-1.51.02-1.38,1.15-2.27,1.17-3.64,0-.68-.48-1.64-1.49-1.3ZM914.32,579.24h.49c.03-1.72,1.35-2.26,1.38-4.33-.31,0-.62,0-.91,0-.04,2.06-.65,2.98-.96,4.34ZM917.45,577.8c-.31.45-.8.21-1.28-.03-.33.69-.94,1.02-.95,1.7,0,.24.39.58.59.58.9.04,1.63-.98,1.64-2.25ZM915.33,571.45c.02-1.48-1.28-1.86-1.57-2.89l-.9-.03c-.02.48-.02.92-.03,1.73.5.02.9-.09,1.41.03-.01.57,1.08,1.75,1.09,1.17ZM907.32,569.34c.41,0,.92-1.37.74-2.29-.29-1.38-1.39-1.18-2.58-2.12h-1s2.25,4.39,2.85,4.41ZM908.38,565.68c.19.23.79.14,1,.03-.19-.23-.79-.14-1-.03ZM906.95,517.95c-1.54,0-3.87,5.15-3.87,7.91,0,1.98-.34,3.7,1.65,3.7,2.53,0,4.95-11.61,2.21-11.61ZM874.45,540.37c0-.78-.76-1.97-1.31-1.97-1.43,0-5.18,3.29-6.07,3.29-.55,0,0,1.19,0,1.99,0,1.71.77,2.63,2.44,2.63s4.94-4.09,4.94-5.94ZM858.8,624.05c.11.4.56,1.84.78,1.84.44,0,.77.79,1.43.79h.76c-.11-.38-.11-.9-.11-1.31-1.54,0-2.21-2.5-2.76-4.48-.78.12-2.31,1.05-2.31,1.71,0,1.06,1.76.39,2.2,1.46ZM865.41,627.47c.67,0,1.11-.79,1.23-1.59-.33-.13-.67-.66-1.01-.66h-1.09c-.11,0,0,.53,0,.66,0,.66.22,1.59.87,1.59ZM837.45,619.42h-.89v.52c0,.94,1.43,3.04,1.98,3.18.09-1.31-.42-2.08-1.1-3.05v-.65ZM833.14,611.39l-.54.26h.1c.11.79,1.54,2.89,1.98,2.89.88,0-.87-2.63-1.54-3.14ZM933.15,485.89c0,.65.55,1.45,1.1,1.45.34,0,.77-.54,1.32-.54-.22-.39,0-.79,0-1.18.11.66.22,1.46.88,1.72l-.43,1.84s-1.1,1.86-1.1,2.13c0,.52.65,2.09,1.53,2.09v-.79c0,.4,0,1.18.33,1.18,1.55,0,2.43-4.09,2.76-6.46.33.26.65,0,.99,0-.21-.41,0-.92,0-1.33l-.99-1.05c-.33,0-.11-.94-.11-1.32-1.32,0-1.99-1.05-2.87-1.05-.32,0-3.41,2.51-3.41,3.31ZM943.29,486.93c1.43,0,1.65-2.11,2.63-3.3.33.13.78.93,1.65.93,1.11,0,2.43-4.62,0-4.62-1.53,0-1.86,2.25-3.74,1.57,0,.14-2.08,2-2.08,2,0,.64.21.91.88,1.44-.11.67.1,1.98.67,1.98ZM955.17,470.84c-.99,0-1.65,4.08-3.52,4.08h-6.83c-2.87,0-3.86,3.32-6.17,5.15-.42.26-1.43.53-1.43.93,0,.51.78.51,1.54.51,2.31,0,4.29-1.04,5.73-1.83.87-.54,1.55.12,2.42-.39.32-.15.44-1.05,1.11-1.05,1.32,0,1.98.79,3.31,1.18,0,.53-.34,1.45-.34,2.24,0,.39-.34,1.06,0,1.06.78,0,.66,1.04,1.54,1.3.56-1.3,1.88-3.42,2.64-3.42.33,0,.77,0,1.11-.12-.11,0-1.11-1.59-1.11-2.12,0-.39.33-1.05.67-1.05.99,0,.89,2.24,3.19,2.24.88,0,1.54-.8,2.21-1.58h1.1c0,.27.34.65.55.65.44-1.84,1.44-1.98,2.97-3.16-.11.92-.55,1.05-.11,2.1,1.31-.51,1.31-1.84,2.65-2.65-.24-.79-.56-1.3-.56-2.51,0-1.7,1.22-2.5,1.22-3.69,0-1.45-.34-5.54.76-5.93.33-.14.67.13,1.01-.26v-.79c0-1.72,1.53-1.99,1.53-4.1,0-1.85-1.53-2.77-1.53-4.61,0-.92.1-1.71-.23-2.63-.11-.4-.55-.67-1.33-.67-.33,0-.12,1.2.22,1.2.12,0,.23.13.32.13-1.32,1.31-1.2-.4-1.41-.4-1.44,0-2.54,3.29-2.54,4.88,0,.66.43.66.43,1.58,0,4.22-3.74,9.77-6.05,10.7-1.31.53-1.54,1.83-3.2,1.83-.21,0-.55-.38-.55-.66,0-.53.24-1.05.55-1.45-.31.14-1.76,3.31-1.87,3.31ZM967.62,441.41c-.22.92-1.98,1.85-1.98,3.3,0,.52.56.79.56,1.32v3.02h.64c.89-1.05,1.78-.52,2.65-1.97-.43-.52-2.08-.52-2.08-1.84,0-2.24,1.87-.92,3.3-.92,0-.41.45-.93.77-1.06,1.89,1.45,2.98,1.71,4.73,3.03.89-1.58,1.66-4.61,3.98-4.61,1.65,0,2.42-.4,3.42-1.2-.44-.13-1.33-.92-1.33-1.71,0-.67.45-.92.67-1.6-.67-.51-1.44.27-2.31.27-4.29,0-5.62-4.22-8.59-6.59-.22.39-.67.79-.67,1.72,0,.52.57.78.57,1.32,0,1.71-.77,6.86-2.65,6.86-.32,0-.77.13-1.11,0l.23.26c-.34-.26-.56-.4-.78-.65v1.05ZM983.48,437.45c-.22.4-.33,1.18,0,1.18.99,0,2.31-1.96,2.74-2.77l-.37-.35c-.86.12-1.96,1.2-2.37,1.94ZM985.68,435.34l.18.17c.05-.01.11-.05.16-.05l-.33-.12ZM991.86,430.58c-1.32,0-2.43,2.91-2.43,2.91,0,.14-.1.66,0,.66,1.54,0,1.54-2.64,4.08-2.64v-.92c-.44.14-1,0-1.65,0ZM997.03,429.41c.88,0,1.77-1.85,1.87-2.64-.23,0-1.54,0-1.76.79-.11.38.22,1.05-.11,1.05-.22,0-.22.8,0,.8ZM976.1,392.58c-.44-1.71-1.33-3.43-1.33-6.07h-.76v2.78c0,.65-.45.92-.45,1.7-1.64.39-2.32,3.96-2.32,6.73,0,1.98,1.67,2.77,1.67,4.76v7.79c0,1.58-.56,2.1-.56,4.09,0,1.58.67,1.83.67,3.69,0,1.98-.45,3.55-.45,5.94,0,.64-.32,3.82,0,3.82,1.33,0,1.33-2.91,2.65-2.91h1.1c.11.54.66,1.46,1.1,1.33.12,0,.34-.14.34-.14-.89-2.25-3.2-3.7-3.2-6.73,0-3.43.34-7.66,3.31-7.66.98,0,1.77.79,2.31,1.73-.65-3.17-2.09-5.82-2.98-9.11-.22-.79-.99-2.25-.77-3.56v-3.17c-.77-1.86.11-3.17-.33-5.02ZM689.76,286.09s2.96-.13,3.3,0c1.86.66.88,2.78,1.65,4.62.21.66,1.98,0,2.75,0,.33,0,.55.8.77.93h8.6c-.11-.26-.23-.44-.36-.64-2.44-2.62-6.03-3.81-6.03-8.6,0-8.44,7.6-17.28,13.22-19.13,1.98-.66,2.53-3.58,5.29-3.58,1.32,0,1.76-2.64,2.43-3.03,3.63-2.11,6.37-1.05,10.24-3.29,2.76-1.58,11.23-2.38,11.23-6.87,0-1.44-3.09-3.3-4.41-3.3-5.5,0-10.69,7.53-16.52,7.53-1.32,0-1.98-1.59-3.3-1.59-2.1,0-2.1,1.59-3.52,1.59-4.07,0-7.16,6.33-9.91,6.33-1.66,0-2.75.93-4.4.93-.78,0-1.1.79-1.1,1.33,0,.78.77,1.31.77,2.37,0,3.7-5.73,5.67-5.73,7.92,0,1.06,1.54,1.32,1.65,2.9-1.76.53-5.29,1.46-5.29,3.7v1.97c0,2.37-3.3,2.12-3.3,5.28,0,1.58,1.99,2.64,1.99,2.64ZM706.39,290.84s.06.1.08.15c.12.13.25.24.36.38l-.44-.53ZM1122.8,320.8c-2.95,1.18-4.72.93-6.61,3.57-1.21,1.72-1.64,6.6-3.85,6.6-4.96,0-10.69-11.22-17.62-11.22-2.19,0-1.1,3.31-1.65,4.63-1.32,3.15-7.71,2.23-7.71,7.92,0,2.11,13.04,9.51-3.31,9.89-8.58.19-15.52,15.18-25.32,15.18-3.32,0-11.48-12.26-20.38,10.56-1.06,2.74,0,4.35,0,5.94,0,2.37-3.85,3.56-3.85,7.92,0,2.77-4.96,3.56-4.41,7.25-4.52,1.32-6.06,8.57-8.26,12.54-3.08-2.91-4.41-18.87-4.41-23.75,0-5.67,3.86-8.71,6.62-10.56,3.3-2.25,5.39-7.26,7.71-11.23,1.98-3.43,4.69-2.29,7.7-4.61,8.63-6.66,2.87-9.51,1.66-9.24-12.02,17.76-11.24,6.33-9.36,4.61-3.74-.66-4.63,0-6.61,0-7.6,0-10.9,5.15-12.68,13.86h-6.06c-2.75,0-4.85-2.63-9.35-2.63-3.63,0-16.74,1.32-20.93,2.63-4.74,1.6-9.25,8.45-12.67,12.54-2.31,2.77-8.25,6.86-8.25,10.56,0,.79,3.38,9.85,9.91,3.95,2.2-1.98,6.97,4.97,6.97,8.54,0,2.91-1.28,5.89-1.93,7.26-1.72,3.66-.43,6.12-1.2,9.95-.66,3.44-3.11,7.74-4.87,9.84-4.42,5.28-10.33,21.17-16.61,21.17-3.4,0-7.69-1.33-7.71-1.33h0c-2.63,2.52-3.52,4.62-4.95,8.19-.43,1.05-2.41,2.38-3.19,3.29-.88,1.07-1.98,1.98-3.3,1.98-.23,2.24.88,3.43,1.88,4.62,2.42,2.89,4.07,5.94,4.07,11.09,0,3.03-.66,4.48-2.2,5.01-.67.27-3.43.39-3.43,1.58-1.31.41-1.52.41-2.19,1.2h-1.65c0-.67.54-1.06.67-1.73-.55-.12-.55-.78-.55-1.31,0-.94.98-2.65.98-3.04,0-.79-.55-1.44-.55-2.24-.66-.13-.88-.66-1.1-.92v-1.33c.89,0,1.76-.79,1.76-1.72,0-1.57-1.64-2.62-2.98-2.62-.77,0-1.21.63-1.54.63-.76,0-1.1-1.58-1.1-2.24,0-1.58,1.22-1.45,1.22-2.77,0-1.58-.55-1.58,0-2.91-1.66,0-2.21-1.44-3.53-1.44-3.53,0-6.06,3.96-9.14,3.96,0-2.38,2.1-3.3,2.1-5.42,0-.78-1.22-2.49-2.1-2.49-1.1,0-1.54,1.31-1.76,1.72-.89,1.72-3.42,3.68-4.74,4.88-1.54,1.32-4.73.39-4.73,3.16,0,1.31,1.88,1.83,2.32,2.24,1.31,1.19.88,2.5,2.2,3.56.88.67,1.98.28,2.86.28.66,0,.66-2.91,1.54-2.91,1.23,0,1.67,1.06,2.43,1.58,1.54,1.19,3.19-.26,4.08,1.19-2.21,2.65-6.93,2.65-7.93,6.2-.45,1.58-2.32,1.71-2.32,3.3,0,1.85,2.09,3.17,2.98,3.31,0,.39.11,2.51.11,2.51h.23l-.12.12c.99.66.99,2.26,1.33,2.91,1.97,3.57,3.07,5.67,3.07,11.35,0,3.82-1.65,5.15-1.65,8.04-1.65.4-4.63,5.66-5.29,7.25-1.01,2.51-1.76,7.39-4.4,7.39-.21,1.32-.77,1.85-1.65,2.37-3.08,2.12-4.29,5.82-9.36,5.82-1.1,0-1.65-1.07-2.76-1.07-.22,0-1.33,2.51-1.33,2.51-1.32,1.58-3.41,1.05-5.5,2.24-.89.54-3.09.92-3.85,1.85-.89,1.05-.23,2.77-1.44,2.77-1,0-.65-2.63-.55-3.3-2.09-1.19-3.42-.39-5.3-1.45-2.19,4.09-7.6,5.03-7.6,10.7,0,1.18.55,1.45.99,1.96,2.53,3.05,3.63,6.48,6.39,8.58,2.64,2.11,4.41,7.92,4.41,12.27,0,3.04-1.33,4.23-1.33,6.6-3.53,1.06-3.86,2.5-6.72,4.21-1.33.81-1.11,2.93-2.42,2.93-.33,0-.33-.79-.33-1.19v1.46c0,1.32-2.2,3.3-2.63,3.3s-.89-1.84-.89-2.65c0-1.06,0-1.58.44-1.84-.44-.26-.66-1.31-.77-2-1.64,0-3.85-.64-3.85-2.63-2.43,0-1.21-1.96-2.54-3.56-1.54-1.83-3.08-1.97-4.84-2.64-.22,0-.56-1.71-.56-1.71-.33-1.46-1.65-1.71-2.86-1.71-.88,0-.66.79-.66,1.43,0,1.2.44,1.46.44,2.52,0,3.96-3.2,5.01-3.2,8.57,0,4.1,3.75,2.51,3.75,6.34h-.21c.44.92.54,3.3,1.31,4.22,2.97,3.56,9.47,4.36,9.47,10.95,0,1.33-.44,1.33-.44,2.52,0,2.37,1.64,3.17,2.09,4.74.45,1.73.45,2.38.98,3.84-.88.12-.98.12-1.44.12-.33,0-.43.53-.77.53-1.1,0-1.2-.92-1.86-1.18-3.42-1.32-6.5-5.28-7.72-9.63-.98-3.83-1.2-6.59-2.42-9.63-.77-1.85-1.54-6.6-3.31-6.6-1.09,0-.43.79-1.43,0-.22,0,0-.53,0-.8,0-1.85.22-3.15.55-5h.55c-.88-.56,0-3.57,0-5.01,0-5.82-2.87-9.23-2.87-13.47-1.43,0,.45-3.96-.66-5.93-.33-.66-1.22-.39-1.44-.66-.65-.8-.32-1.33-.98-2.11-1.87,2.23-2.65,6.07-5.74,6.07-1.64,0-1.76-1.59-1.76-3.3s.55-2.51.55-3.96c0-.65-.55-1.06-.66-1.72-.76-2.78-2.09-4.88-3.19-6.99-1.54-1.46-2.75-2.5-3.64-4.22-.88-1.59-.66-3.7-1.1-5.28-.44-1.85-2.31-2.63-3.97-3.04,0,3.96-3.08,4.75-5.94,4.75-1.76,0-1.76-.65-2.65-1.32-.77,1.98-3.08,2.12-3.42,3.3-.43,1.85-.32,3.31-1.31,4.49-1.99,2.38-5.17,3.04-6.94,5.14-2.22,2.63-4.18,5.29-6.28,7.78-.88,1.07-2.09,2.66-2.87,2.92-1.97.8-4.29,1.18-4.29,3.96,0,2.37.78,3.69.78,5.81,0,3.29-1.32,5.4-1.32,7.91l.55,3.43-.55.14c0,.39-.77.39-1.1.52-1.55.53-1.22,3.95-2.1,4.49-1.31.79-1.53.28-2.09,1.59-.44,1.05-.54,2.65-1.43,2.65-.88.13-1.54-.4-1.66-1.33-.54,0-.87-.93-.98-1.32-.88-3.18-2.09-5.82-2.86-8.59-.45-1.82-1.98-3.16-2.43-4.21-.88-2.11-.33-3.84-1.21-5.4-.88-1.73-.88-2.52-1.33-4.22-.54-1.98-2.53-6.33-3.31-9.25-.66-2.62-1.87-5.14-1.87-7.65,0-.39-.17-1.48-.17-1.87l.09.1c.04-1.76.53-2.12.53-3.76,0-2.12-1.1-3.69-1.1-5.42,0-.38.65-1.32.65-1.83h-.87c-1.43,1.71-1.55,6.19-4.4,6.19-3.42,0-4.75-4.09-6.39-6.07.99-.8,1.75-.12,2.75-.53.88-.27.98-1.45,1.43-1.97-.88-.27-1.66-.27-2.54-.27-2.19,0-5.39-2.63-6.49-4.61-.89-1.72-1.54-4.75-2.87-5.28-1.21-.4-2.08-.12-3.3-.12-1.32,0-1.65,1.05-2.76,1.05l-2.86-.93c-.44.27-.76.67-.98.93l-3.86.26c0,.13-.45,0-.55,0-2.09,0-6.95-1.59-9.91-1.59-.56,0-3.74-1.05-3.87-1.19-1.09-1.31-1.09-5.28-3.4-5.28-1.21,0-1.66,1.19-2.31,1.99h-5.51c-1.77-.67-2.65-2.38-3.76-3.7-1.32-1.59-3.08-.8-4.29-2.24-.65-.79-.32-1.84-.54-2.38-1.22-2.89-3.64-6.99-6.73-6.99-1.54,0-2.21,2.37-2.21,4.22,0,1.33,0,1.98.23,3.04.66,3.16,3.75,8.82,6.28,9.5,0,1.44.66,1.84.76,3.03,1.32-.4,1.1-2.11,2.2-2.37.11.52.11.92.11,1.45,0,1.59-.76,2.64-.76,4.23,0,1.85,2.85,2.77,4.51,2.77,7.38,0,7.94-5.41,11.89-8.97v4.88c1.54,3.82,3.64,4.49,6.83,5.68,1.22.38,1.33,2.63,2.09,3.16v-.14c.56,1.19,2.1.93,2.1,2.12,0,3.03-3.2,4.08-3.2,7.25-1.65,0-2.75.53-3.19,2.11-.44,1.59-.33,3.83-1.65,3.83-1.66,0-1.54,3.83-3.2,3.83-.99,0-3.08,2.24-3.08,3.82-2.98.66-9.69,2.12-9.69,5.02,0,.39.21.92.43,1.19-2.52,1.45-5.94,2.37-8.59,3.16-1.32.39-5.72,4.09-7.16,4.89h-3.41c-1.88,1.59-2.17,2.67-4.49,2.67l-.69.5c-.34,0-3.14-1.65-3.44-1.82-.27-.16.59-.17-.13-1.48-1.14-2.07-1.94-4.23-1.94-6.76-1.2-.12-.35-2.62-.12-3.8.55-2.92-1.31-4.1-2.51-5.55-1.33-1.58-4.38-6.13-4.38-9.31-3.85-1.05-4.76-3.75-4.76-8.77,0-3.03-1.43-3.7-1.88-6.2-.54-.52-1.11-1.32-1.43-1.71-.44-.53-1.87-.27-2.2-.65-.67-.8-.43-2.78-.67-3.56-.33-1.33-1.1-2.39-1.54-3.18-1.31-2.37-2.42-4.36-3.62-6.6-.34-.66-1.87-2.77-1.87-3.16,0-.9.35-2.58.57-4.19-.46,1.9-1.65,5.28-2.01,6.57-2.32-.41-4.19-6.34-6.07-8.58v2.24l10.47,22.17c-.55,2.76,2.75,8.58,4.4,10.15v7c1.1,3.55,3.31,3.55,4.96,6.2,1.99,3.16.77,6.61,2.76,8.97,1.75,2.12,2.96,2.24,4.96,3.95,1.76,1.59,2.71,7.06,6.33,7.06,0,2.25,1.05,2.58-.05,4.15,1.42,1.32,2.87,5.54,4.72,5.54s1.88-1.72,3.31-2.23c1.65-.68,2.75.27,4.41,0,4.18-.8,8.15-2.77,12.12-3.96.33.79.77,1.19.77,1.97,0,7.52-4.95,17.28-7.72,21.78-3.3,5.27-4.72,10.03-8.81,13.86-7.26,6.87-15.08,8.97-17.84,20.73-.76,3.28-3.63,4.2-3.63,7.92,0,4.09.87,5.92.87,9.89,0,4.49,4.09,6.72,4.09,9.22,0,.8-.67,1.73-.78,1.99v3.29c0,2.12-.33,4.62-.33,8.32.67.78.88,1.57.88,2.65,0,10.29-14.54,9.11-15.75,17.8-1.53.27-3.3,2.5-3.3,3.96,0,2.91,3.09,4.89,3.09,8.84,0,2.12-.22,6.46-.89,7.65-.66,1.06-2.54.54-3.3.93-2.64,1.59-4.18,2.9-5.5,6.21.98.65,1.65,1.58,1.65,2.76,0,3.69-3.08,6.58-4.39,8.19-2.44,2.88-2.66,5.94-4.41,8.58-2.75,4.21-3.97,7.91-8.48,10.55-1.87,1.06-4.63,0-4.97,2.38-1.42.13-2.3.91-3.3.91-1.2,0-1.87-1.31-3.08-1.31-4.62,0-7.37,3.97-11.56,3.97-1.87,0-2.86-1.19-3.53-2.66-.66.14-.87.53-1.1.68,0-2.64-1.1-5.54-1.98-6.6.88-1.06,1.43-2.12,1.43-3.57,0-2.11-3.08-6.08-3.63-7.25-3.97-8.06-9.04-15.85-9.04-27.45v-3.57c0-1.85-1.31-2.5-2.2-4.35-3.09-6.2-6.39-11.22-6.39-19.8,0-9.23,6.94-11.48,6.94-18.48,0-3.29-1.1-4.62-1.44-7.51-.78-5.67-1.65-7.65-2.76-10.95-.87-2.63-.44-5.67-1.87-7.91-2.87-4.37-9.14-8.98-9.14-15.18,0-1.45,1.76-4.76,2.53-5.28-.44-1.19,0-1.46,0-1.97,0-1.6,0-5.55,1.11-6.61-1.2-2.9-3.2-5.55-6.94-5.55h-4.62c-3.31,0-4.08-7.64-8.6-7.64-5.49,0-9.57,3.03-13.76,4.61-1.65.65-2.2,2.38-3.85,2.38s-4.42-1.99-6.61-1.99c-4.29,0-6.17,2.63-10.47,2.63-1.32,0-2.85-.65-3.3-1.04-3.09-2.78-9.47-7.27-11.79-11.49-2.09-3.82-2.75-6.99-5.5-9.62-.78-.67-6.61-6.87-6.61-7.4-.55-.79-.88-1.04-1.44-1.84h.34c0-1.99-.56-3.04-.56-4.22,0-1.86-.88-2.52-1.65-4.35,2.42-1.46,4.62-8.58,4.62-11.87,0-5.82-2.2-9.52-2.2-14.78,0-2.65,2.54-4.24,3.09-6.35,1.43-5.15,4.73-12.13,7.38-16.5,1.54-2.5,4.4-2.23,6.38-3.56,1.65-1.19,4.41-3.82,4.96-5.94,1.32-4.88-.33-6.99,1.87-10.29,2.87-4.35,6.61-8.45,9.37-12.54h-.23c.88-1.31,1.1-2.51,2.21-3.56,2.75,2.38,5.62,3.3,9.36,3.3,2.31,0,2.75-1.58,4.08-2.37,4.3-2.51,12.44-6.2,17.4-6.2,1.54,0,2.97,1.31,3.85,1.31,1.21,0,2.98-1.97,4.64-1.97,1.42,0,2.09.91,3.31.91,2.2,0,2.3-1.97,4.4-1.97s1.54,2.37,3.29,2.37c.67,0,1-.65,1.66-.79-.11,1.98-1.66,1.71-1.66,3.43,0,1.19,1.43,1.72,1.43,2.91,0,1.98-1.43,3.02-1.43,5.01,0,3.29,2.86,6.2,4.96,6.2h3.09c7.15,0,9.69,10.56,17.83,10.56,1,0,2.2-1.32,2.2-1.98v-2.64c0-4.22,2.65-4.22,6.07-5.53l.33.26h2.42c0,1.84,1.22,2.24,1.66,3.02.99,1.59,3.53.54,5.29,1.33,3.51,1.59,8.48,3.55,12.33,3.55,3.52,0,4.62-1.96,8.04-1.96,2.09,0,3.3,1.7,5.73,1.7,1.64,0,1.64-.66,3.08-1.05.11.33.25.63.38.94l-.61-1.74c0-.92.78-.92.89-1.45.77-2.9,1.1-4.36,1.75-7,.67-2.64,2.87-3.29,2.87-6.33,0-2.24-.55-4.09-.55-5.66,0-.8.55-1.07.77-1.32v-1.32c-.88.4-1.21,1.18-2.09,1.18-1.1,0-1.77-.52-2.2-1.05-1.76,1.58-2.31,3.29-5.51,3.29-2.31,0-3.19-3.29-5.51-3.29s-1.87,3.03-3.85,3.03c-2.09,0-3.2-3.57-5.29-2.38h-1.21c.33-.12.77-.52.88-.78-.67-.79-3.85-2.78-2.76-4.09-.99-1.72-2.2-1.58-3.73-2.5,1.09-1.32,2.3-1.06,2.3-3.56,0-.92-.22-.92,0-1.59-.77,0-1.87.14-1.87-.67,0-4.07,7.93-3.29,9.91-4.48-.21-1.05-.88-.66-.88-1.58,0-1.19,2.09-.67,2.65-.67h3.41c1.32,0,3.3-1.71,4.52-2.63,1.43-1.06,4.52-1.19,6.39-1.19,2.98,0,2.86,1.99,5.4,1.99,0,1.58,4.29,2.5,5.51,2.62h6.27c2.27,0,3.57-2.05,5.52-3.04-.03.02-.08.03-.13.05l-.44.08c0-10.42-12.66-9.1-15.42-16.88,6.4-1.96,3.52-5.54,3.31-6.33.56-.27,1.98-2.25,1.98-2.25-2.98,1.32-11.01,4.88-11.01,5.93,0,1.6,1.43,1.98,1.87,1.98,0,0,2.86.53,3.08.53-.88,1.32-6.16,4.1-7.71,4.1s-6.6-9.9-8.58-9.9c-2.43,0-2.66,3.43-5.08,4.22.12.67,0,1.32.12,1.98-1.1.26-2.28.91-2.28,2.23-.42,2.14-.37,1.08-.7,1.86v3.43c-1.1,1.32-3.09,3.95-3.09,5.81,0,2.64,2.98,4.48,3.65,5.66-.45.53-.88.4-1.44.53-.99.4-1.75-.12-2.75.4-1.43.79-1.77,2.5-3.19,2.5-1.65,0-2.65-2.63-4.62-2.63-1.76,0-2.2,1.19-3.64,1.71.22,1.07.22,1.85,0,2.9-1.65,0-1.86-1.98-2.86-1.98-.56,0-1.2.81-1.2,1.46l2.07,2.9c-.1.78-.44,1.18-.44,1.58s2.98,3.7,3.87,3.7c0,.39.21.92.44,1.19-.56.39-1.65-.12-1.88.8h-.22c-1.2-.26-2.31-1.32-2.86-1.98v1.06c.33.78.65,1.18.65,2.24,0,.78-1.1,2.37,0,3.03h-1.53c-1.77,0-3.3-2.12-3.3-4.35,0-.92,1.1-1.32,1.43-1.98h-1.88c-.43,0-.66-1.18-.66-1.45-.45-1.83-1.31-3.04-2.3-4.22-1.34-1.57-3.09-2.78-3.09-5.53v-3.44c0-1.86-2.43-4.62-3.97-5.54-1.54-.93-3.31-1.06-3.31-2.9h-1.54c-2.43,0-5.17-4.49-5.17-7.52h-3.3c-1.44,0-.78-2.76-1.44-3.57-1.22.93-3.63.93-3.63,2.38,0,.26.33.79.56.79-.23.79-.45,1.59-.45,2.37,0,1.99.99,2.77,2.31,3.31,1.65.66,2.54,2.9,2.87,4.09.43,1.85,1.2,3.96,2.09,4.48,1.65.94,2.76.26,4.4.26,0,.41,0,.8-.21,1.05-.45,1.6,2.2,2.27,2.86,2.65,2.2,1.32,4.85,2.37,4.53,5.14-1.11-.25-1.76-1.98-3.54-1.98-1.32,0-2.42.81-2.42,2.12,0,1.72,1.98,2.11,1.98,3.82,0,.66-1.43.66-1.43.66-.99,1.19-.77,3.96-2.31,3.96-.77,0-1.22-.39-1.22-.92,1.33,0,1.86-1.98,1.86-3.57,0-1.97-.87-2.5-1.11-3.68-.31,0-2.96-3.15-3.07-3.94-.44,0-2.09-.56-2.09-1.35-3.42-.91-4.18-2.11-6.05-4.35-.78-.93-2.43-1.45-2.65-2.37-1.98-3.03-2.63-8.45-6.82-8.45-1.97,0-2.09,1.71-3.08,2.25-2.1,1.19-3.52,3.56-5.95,3.56s-3.96-1.45-6.17-1.45c-1.66,0-3.41,1.31-3.41,3.31l.66,2.89c-.66,2.64-3.08,3.58-5.4,4.23-1.98.53-5.18,5.94-5.18,8.84,0,1.05.56,1.44,1.11,1.72-1.43,2.63-2.09,4.22-4.4,5.54-1.32.79-1.54,4.09-3.75,3.31v.12c-1-.38-2.86.27-3.42.27-2.64,0-4.07,2.64-6.5,2.64-1.64,0-1.76-4.88-4.29-4.88-1.87,0-3.08.91-4.74.91-.66,0-.87-.65-.87-1.06v-5.28c-.89,0-1.76-.78-1.76-1.85,0-1.7,1.2-2.11,1.2-3.02,0-3.3.99-6.72.99-10.15,0-2-1.21-3.84-1.21-5.04,0-.78,3.75-3.56,4.4-3.56.44,0,1,.79,1.66.53h4.95c.44.53,1.33.67,1.87.8h5.29c1.32-.4,1.99.52,3.08.52.77,0,2.43-.64,2.76-.64,0-2.66,1.42-3.44,1.42-5.94,0-.54-.11-2.85-.11-3.64l-.22.2c.22-.52.44-1.45.44-1.97,0-1.19-.66-.93-.66-1.99-2.2,0-2.87-2.37-2.87-4.48-.66-.13-.77-.8-1.32-.92-1.76-.66-6.61-1.72-6.61-3.71-.11,0-.11-.39-.11-.52,0-1.18,3.08-1.98,4.18-2.37.33.79,2.09,1.32,2.98,1.32s2.09-.53,2.53-.66v-.91c-.77-.27-.44-2.25-.55-2.64v-1.07h1.1c.88,1.07,1.98,1.71,3.3,1.71.89,0,1.66-.92,1.88-1.97,3.31,0,4.18-2.91,4.85-6.07.66,0,.99-.13,1.54-.27.66-.26,5.06-2.37,5.5-2.89.89-1.06.55-2.65.55-4.23,0-.52.99-1.31,1.1-1.45,1.54-1.84,3.09-3.96,5.62-3.96,1.43,0,.77.4,1.54,0,.33.4.66-.65.88-.91.77-.93,1.76-.14,2.75-.14.66,0,2.42-1.19,2.42-2.24,0-.67-.77-3.18-.77-3.31-.44-3.56-2.21-4.61-2.21-7.78,0-5.54,4.29-5.93,7.05-8.31v1.59c-.55,1.31-.66,2.11-.66,3.42s1.21,1.46,2.1,1.46v1.06c0,.65-1,.92-1.33,1.32-1.1,1.31-2.43,2.5-2.43,4.88,0,1.31.55,2.23,1.2,2.36,0,.8.13,1.06,0,1.45,1.22,0,1.66.54,2.65.54.23.66.45,1.58.77,1.58,2.97,0,5.07-3.03,7.6-2.64-.11.66-.66,1.06-.66,1.46,0,.26,1.87,1.84,1.87,1.84,1.2,0,1.31-.91,1.87-1.18,1.87-1.07,3.31-.67,4.95-1.6,1-.52,2.75-2.5,4.08-2.5,1.43,0,2.98.14,3.74.53-.22.52-.44,1.19-.44,1.45,1.34,0,2.69-.15,3.96-.3.22-4.62,3.74-3.92,3.74-9.06,0-3.17,2.43-9.24,4.41-9.24s2.21,3.3,4.4,3.3c1.33,0,4.25-2.41-1.31-8.63-1.69-1.89,3.85-4.57,6.28-4.57s3.63.93,5.51.93c1.43,0,4.73-1.85,6.05-2.91-.76-2.5-1.87-3.17-2.75-4.62-1.1,2.65-6.16,3.04-8.26,2.65-2.21.79-4.74,1.98-6.61,1.98-1.42,0-2.41-.26-2.41-1.73-2.32,0-4.74-1.83-4.74-4.6,0-1.33,1.22-2.26,1.54-2.91-1.11-.53-2.09-3.57-2.09-5.01,0-.93.22-1.73,0-2.64,4.62,0,7.06-7.26,9.91-9.24,1.54-1.05,4.17-1.72,4.17-3.96,0-3.3-3.62-3.96-6.38-3.96-3.63,0-6.6,1.59-6.6,5.28,0,1.59.33,2.23,0,3.04,0,3.03-5.07,5.67-7.38,7.26-1.87,1.31-3.86,1.85-4.95,4.22-.88,1.85.22,4.35-1.42,5.28v2.65c.54.52.87,1.44.87,2.36,1.99.4,4.96,2.78,4.96,5.28,0,1.98-3.3,5.28-4.4,5.28-2.21,0-3.08,3.82-3.08,6.6,0,1.57.98,2.1,1.66,2.24-.34,3.56-2.99,3.83-3.31,6.33h-2.97c-1.88,0-2.54,4.23-5.29,4.23-.89,0-2.42-5.54-2.42-6.19,0-.41.21-.94.21-1.33-1.87-2.25-1.65-4.1-2.42-7-.55-1.96-2.2-2.5-2.2-4.87,0-.64.31-1.4.55-1.89-1.2-.78-1.48-1.89-2.2-3.13-2.3,3.97-5.83,8.98-10.46,8.98-.66,0-4.96-3.17-4.96-3.69,0-1.06,1.44-1.71,1.88-1.98v-1.97q-1.54,0-2.87.65c0-.92,1.21-2.5,1.76-3.42-1.66-2.38-1.87-5.68-1.87-9.37,0-1.98,1.75-1.84,2.41-3.04,1.32-2.24,2.54-3.83,4.96-4.62,1.99-.66,2.42-3.83,6.38-3.3-1.21-.39-1.65-.66-2.65-.92,4.84-1.46,6.72-6.07,10.02-9.24,1.32-1.19,1.11-5.28,1.98-5.28,0,0,1.1-2.9,1.1-3.03,1.33-2.64,2.88-4.49,5.18-5.54,2.31-1.05,5.4-5.55,5.94-8.32-2.75.67-3.85,2.39-6.5,2.39.56-.93,1.77-1.59,2.21-1.85-.55,0-1.65-.4-1.65-.4.22-1.32.79-2.1,1.65-2.1.33,0,.55.39.88.39.33-.79.66-1.32.99-1.71.55.78.66,1.45.34,2.37,1.76,0,2.21,1.32,3.62,1.32.55,0,1.77-3.16,1.99-3.29-.78-.26-.78-.39-1.76-.26.56-1.05,1.43-2.12,2.53-2.12.78,0,1.43.26,2.2-.26-.54-.67-.43-.52-.87-1.06,1.1-1.31,3.07-1.19,4.73-1.57v1.57c1.43-.39,1.77-3.42,4.07-3.55v2.24c1.43-3.17,3.3-2.38,5.29-3.7-.88-.39-1.65-.66-1.65-1.59,0-.65,1.97-1.19,2.3-1.97.67.92,1.33,1.97,2.31,1.97,1.66,0,5.84-3.29,5.84-1.57,0,1.84-1.87,2.38-2.32,4.22,2.2.26,2.85-2.77,4.73-3.96.44.93.44,1.58.55,2.38,1.55-1.85,2.42-2.38,4.18-3.69.11,1.72-.11,2.9,1.1,3.04.33-1.05.78-1.98,1.66-1.98.55,0,2.97,1.57,3.85,2.11-.99,3.17-1.87,2.11-4.4,3.17,1.11,1.06,1.87,1.18,1.87,1.97.99.14,3.3.53,3.64.53,2.53-.39,2.64.13,2.97.13,3.63,0,15.54,7.18,20.92,9.24,18.79,7.2,6.46,16.38.34,14.45-4.58-1.44-7.17-1.26-11.9-1.26,2.2,3.83,1.43,11.88,7.71,12.55v-5.28c12.74,6.53,11.23-6.07,14.32-7.27,3.08-1.19,8.81,1.99,8.81-2.64,0-2.37-1.96-2.82-1.65-3.95,4.75-17.54,7.21-5.99,5.51-.66-.48,1.48,1.43,2.64,2.75,2.64,4.07,0,20.58-17.68,23.11-9.9,5.03,2.91,12.01-2.64,15.42-2.64,1.99,0,5.58,8.19,6.07-1.98.03-.92-4.83-7.05,10.25-2.37,5.46,1.69,20.1,14.51,13.97,3.03-2.65-3.16-4.96-7.12-4.96-13.19,0-5.01,9.02-14.32,13.77-13.19,9.43,2.25,3.3,4.08,3.3,8.57,0,4.09,1.24,24.03,5.86,24.03,3.59,0-3.22-9.81-.9-12.8,3.38-4.34-1.31-8.18-2.19-11.88,2.87-1.85,5.16-3.7,5.72-7.91,1.54,2.37.96,14.44,7.49,3.96,7.72,0,8.58,1.84,11.01,0-.42-2.12-1.64-3.7-1.64-5.27,0-7.53,13.66-5.94,17.29-5.94,2.53,0,3.05-5.45,4.74-7.26,8.06-8.64,23.57-9.9,27.19-11.23-1.24,6.21,13-.65,15.2-2.63,2.97-2.77,5.29-7.92,11.02-7.92,4.73,0,7.15,3.57,8.25,7.26h11.58c27.33,7.86-5.96,18.62-9.37,23.76,0,0-3.22,8.85,11.23-5.28,2.42,4.75,21.48,7.39,25.11,8.57h12.11c0-4.09,1.56-5.56,4.41-5.27,22.66,2.25,13.77,8.97,13.77,9.9,0,3.7,1.97,10.56,6.6,10.56,1.76,0,2.41-4.09,2.76-5.94,3.63.26,4.07,3.3,7.15,3.3h17.61c.67-5.15,1.87-10.55,10.47-10.55s15.86,1.97,22.58,4.61c3.19,1.19,3.31,4.36,5.51,6.6,2.42,2.51,8.58.66,12.67.66,7.48,0,11.23,2.38,12.66,9.25l25.32.65c2.1-.13,10.58,12.81,7.18,0-.47-1.75,1.99-2.63,5.5-2.63,12.77,0,24.34,6.46,33.04,12.54,6.28,4.35,19.17,7.91,23.13,14.25ZM636.31,500.29l-.06-.16c.02.11.04.21.05.32,0-.05,0-.11.01-.16ZM678.5,460.58c-.42.79.91.89,1.46,1.95.88,1.57-.1,2.64.55,4.22.55,1.45,1.97.66,3.19.92,1,.27,1.22,1.59,1.87,2.37.88,1.06,3.64.8,5.06.8,1.88,0,3.86-.39,5.17-.8v-2.36c-.1-.14-1.09-1.59-1.09-2.78s.77-1.57.77-3.04c0-2.5-1.54-5.15-3.86-5.53.22-1.99,1.21-3.3,2.21-3.3h3.29c0-1.98-1.75-3.04-1.87-5.02-.76.15-2.86,1.46-3.75,1.99,0-5.15-2.97-6.87-5.06-11.22-.67-1.45-2.43-1.31-2.54-3.96.34.15,4.73-3.3,7.71-3.3,1.99,0,4.17,1.46,5.84-.12-2.21-3.96-3.19-7.4-9.14-7.4-3.63,0-5.4.93-8.25,2.25-.33.13-3.64,2.38-4.19,1.98-.56.79-2.65,5.68-2.65,6.32,0,1.98,2.43,3.96,2.43,5.29,0,4.49,4.52,12.41,7.48,14.39-1.76,1.05-1.76,4.21-3.08,6.33,0,0-1.15-.76-1.57.03ZM836.48,576.08c-.14.4-.29.81-.46,1.26h0c.17-.45.32-.85.46-1.26ZM838.21,571.13c-.64,1.62-1.01,2.8-1.42,4.04.42-1.23.79-2.42,1.42-4.04ZM839.1,569.68c0-.43-.26-1.71-.61-3.13.34,1.42.6,2.7.6,3.13,0,.26-.14.49-.31.68.16-.2.31-.42.31-.68ZM1087.89,288.73c1.21,0,9.9-.65,9.9-2.38,0-1.97-4.17-3.29-5.82-3.29-1.88,0-5.18,2.37-5.18,4.35,0,.67.44,1.32,1.1,1.32ZM1056.72,296.91c.55,0,1.11-.66,1.11-1.31,0-.8-.67-1.06-.78-1.59h-3.64c.66,1.59,1.76,2.9,3.31,2.9ZM951.87,255.08c.79,0,.95-.97,1.07-1.74l.03.03-.03-.04c.01-.07.02-.15.03-.22h-.22l-.89-1.06c-.45.66-.88,1.18-.88,1.99s.34,1.05.88,1.05ZM879.41,261.68c-1.1,0-2.42.66-2.42,1.97,0,1.18,1.21,1.59,2.42,1.59.89,0,1.6-.35,2.3-.8.13-.22.23-.46.23-.79,0-1.58-1-1.97-2.53-1.97ZM881.94,264.32c-.08.05-.16.08-.23.13-.19.31-.46.56-.65.8l.88-.93ZM838.11,234.23c0,1.32.32,1.98,1.65,1.98l5.84-1.98s3.42-.67,3.85-.67c1.99.4,7.72-.13,7.72-3.29,0-1.85-4.52-5.27-6.05-5.27-.77,0-1.22,1.05-1.99,1.32.9-1.06.33-1.06.33-2.91h-1.43c-4.4,0-5.39,4.88-7.92,7.92-.66.79-1.98.79-1.98,2.9ZM811.46,218.39c0,1.19,1.54,3.3,2.2,3.3,1.32,0,4.95-.26,5.17-2.64-.77-.26-3.85-1.98-4.4-1.98-.66,0-2.97,0-2.97,1.32ZM826.54,218c-3.52,1.32-4.62,2.77-8.25,4.22,1.65,1.06,4.52,4.75,5.84,4.75,3.96,0,7.49,2.37,12.34,2.37,1,0,2.2-.8,2.2-1.97,0-.92-.87-1.32-1.65-1.6.66-.26,2.21-.39,2.21-1.71s-.22-1.59.88-2.63c-1.44-1.72-1.44-2.63-3.63-2.63h-2.21c-1.32,0-1.98-1.32-3.31-1.32-.87,0-1.2-.4-2.3,0,.88-.53,2.09-1.6,2.09-2.38,0-.66.1-1.05,0-2.64.43.13.21.4,1.33-.13-1.78-1.58-3.53-5.15-6.62-5.15-5.29,0-6.93,6.2-11.56,7.78,2.86,1.72,4.96,2.78,8.04,2.78.66,0,3.52.26,4.62.26ZM826.32,244.79c1.32,0,1.98-.79,2.2-2.64h-1.66c-.45.39-.99.92-1.65,1.32.12.66.56,1.32,1.11,1.32ZM813.11,208.89l-.34-1.04h-4.07c.66,1.72,2.76,1.32,4.41,1.04ZM862.89,235.28c.77,0,1.32-1.05,1.43-1.97-.99.54-1.31-.13-3.64.39.32.66.89,1.58,2.21,1.58ZM683.92,215.09c-.27.25-.53.41-.77.53v.53l.77-1.06ZM672.36,212.45c.99,0,1.54.8,2.53,1.19-.55.52-1.11.79-1.65,1.19.45.12.99.26,1.97.26-.87.26-1.43.53-2.3,1.06.33,1.18,1.43,1.59,3.08,1.59h-.11c.32.52.65,1.18,1.2,1.32,1,.13,1.22-2.25,2.21-2.9,1.5-1.02,2.45.16,3.85-.53v-.79c.34.12.77.12,1.11,0,1.31-1.19,2.74,0,2.97-2.39-.65-.26-1.99-1.32-3.31-1.32-1.65,0-2.42,1.71-4.06,1.71-2.11,0-3.65-1.71-6.4-1.71-2.31,0-7.49.39-8.48,2.51.88.14,1.54.52,2.42.52,1.66,0,3.75-1.72,4.96-1.72ZM724.68,211.8c.77,0,5.06-1.06,5.83-1.72l-1.54-4.21c-1.64,0-6.17,2.11-6.17,3.95,0,1.31.55,1.98,1.88,1.98ZM718.61,215.09l-.55-1.58c.98,0,2.09.53,2.75-.66,0-.53.1-.78,0-1.98-.99.26-2.86.14-3.52,0,.22,0,.88-.39,1.1-1.06h-3.64c0,.25-.11.66,0,1.72-1.32.54-2.2,1.58-2.2,3.56,0,.66,5.39.4,6.05,0ZM707.05,214.84c-1.1,0-5.5.79-5.5,2.64,0,.52.55.92,1.1.92.99,0,1.43,0,1.65-1.32.66,0,1.54,1.32,2.2,1.32,1.54,0,1.43-1.98,3.64-1.98-.55-.93-1.65-1.58-3.09-1.58ZM706.5,212.19c1.21,0,2.42.26,3.3-.53-2.41-1.19-3.19-1.46-6.28-1.98,1.11-1.32,3.31-2.12,5.07-3.44,0-.66.55-1.32,1-1.7,0-.4-.11-1.59-.33-1.59-.98,0-1.76,1.06-1.87,2.24-3.2,0-3.31,2.64-6.61,2.64v1.73c1.09-.8.66-.27,1.86.26h-4.62c-.56.52-.78.79-1.43,1.46.22.13,4.72,2.5,5.5,2.5,1.32,0,3.08-1.58,4.4-1.58ZM562.78,226.71c.33,0,.55.39.88.52-.44,2.11,1.22,3.17,3.09,4.36-.34,0-.55.14-.88.28.54,1.31,1.75,2.09,3.52,2.09,2.31,0,2.31-2.9,3.3-3.55h.89c.44.39,1.42,1.19,1.65,1.19h2.86c-1.21,1.18-4.18,2.77-5.61,3.3-.56.13-3.09.13-3.09,1.32,0,3.17,2.86,1.72,4.19,1.72.76,0,4.29.14,4.94.66-1.32.39-2.53,0-3.63,1.06,0,0-2.53-.39-4.08-.13,0,4.48,5.95,6.2,8.59,8.31,1.55-1.84,1.32-5.54,3.19-7.26.55-.52,1.43-.26,1.67-1.05,1.1-3.43,2.31-9.24,6.04-9.24,0,0,.88,1.71,2.65,1.99-.55,0-.99.12-1.54.26.44,1.05,1.44,3.43,2.2,3.69-.21,1.98-1.42,1.32-1.64,3.7,1.44.14,3.74,0,5.06.26-.33.67-.33,1.32-.11,2.38,2.76-1.06,3.96-3.29,6.94-4.49-.99-1.71-4.19-.67-4.19-4.75h-3.52c.33-.53.22-1.32,0-1.98-.77.13-1.1.27-1.98,0,.32,0,.76,0,1.1-.14-1.1-1.57-6.93-5.54-8.82-5.54-.33,0-.77-.14-1.09-.14.22-1.05.44-3.16-1.33-3.16-.88,0-1.1,1.18-1.97,1.71,0-.92.32-1.71.32-2.63,0-1.31-2.97-2.63-4.4-2.63s-2.2,0-2.2,1.97c0,2.5.64,3.69,1.32,5.81-2.76-1.2-1.99-5.81-4.97-5.81-.98,0-1.86,1.06-1.86,2.24,0,.8.34,1.45.77,1.72-.77-.92-1.86-.92-2.97-1.97.32-.67.77-1.06,1.32-1.85-2.53-.52-3.75-.52-5.51-.52-1.09,0-3.41,2.5-3.85,3.16.76.92,1.97,3.17,2.75,3.17ZM584.58,219.58c-.22,3.04,1.98,1.45,3.86,1.45.22,0,4.73.4,5.17.4-.55.26-1.77.26-2.75.65-.22,0-1.44,0-2.21.13.12,1.06.44,1.73,1.43,2.12h6.27c.78,1.58,1.88,2.37,3.86,2.37,3.19,0,8.71-4.63,11.35-6.73-.66-1.58-2.76-3.56-4.97-3.56h-3.62c-1.66,0-2.32,1.32-3.31,1.32-.23-.93,0-1.58,0-3.3h-1.32c-.55.53-1.44,3.04-2.76,3.04-.55,0-3.75-1.86-4.41-2.65h-3.07l.54,1.32h-1.86v.65c-.67.4-1.55.13-2.21-.39h-1.65c.1,1.32.78,2.39,1.65,3.17ZM563.77,233.96c-.75-2.82-2.22-3.41-3.61-5.49-1.64,1.24,1.51,4.86,3.61,5.49ZM560.35,228.29c-.09.05-.12.12-.19.17l.19.23v-.4ZM560.02,228.29c.04.07.09.12.13.19,0,0,0,0,.01-.01l-.14-.17ZM496.04,399.84c0,1.6,1.43,3.04,2.75,3.04.66,0,1.55-.12,2.09-.51.89-.67,2.2-2.91,3.98-2.91,1.09,0,2.19.13,2.86-.66.87-1.06.11-2.65.11-3.7v-4.48c0-1.05,1.98-.92,1.98-1.98,0-2.25-1.22-5.41-3.75-5.41h-1.87c-1.1,0-3.31,1.58-3.31,2.51,0,.65.22.92.66,1.71-.66.8-2.53,1.46-3.19,1.46-.33,0-1.22-.26-1.22,1.45,0,1.32,1,2.11,2.1,2.77-.44,3.17-3.19,3.43-3.19,6.73ZM505.94,369.49c1.22,0,2.1-1.57,2.1-3.02-.88,0-2.75.65-2.75,1.45,0,.53.32,1.57.65,1.57ZM509.47,373.32v1.05c0,.13-.77,1.06-.77,1.71,0,.54.99.93,1.65,1.07v1.18c-.32.27-.44.53-.44.93v2.12h.89c-.21-.53-.55-.92,0-1.99.34.27,1,.66,1.87.66-.33,1.05,0,1.33,0,2.51,0,1.05-1.1,1.72-1.1,2.77s.77,1.05,1.76,1.05c.88,0,1.44-.65,2.53-.65.33,0,.66.12.99.12-.22.53-.77.79-.77,1.84,0,1.33,1.53,1.6,2.65,1.45v1.98c-.55,1.33-2.98,2.5-4.96,2.5,0,1.46.89,2.12.89,3.84,0,1.97-3.09,2.11-3.09,4.09,0,.26.32.66.55.66.55,0,.44-.66,1.11-.66,1.21,0,1.65,1.58,3.08,1.58.78,0,1.54-.53,1.99-1.32,0,.26.22.67.22.93,0,1.84-2.21,1.2-3.74,1.71-.34.13-3.64,4.35-3.86,4.88v.79h.77c.44-.53.77-1.05,1.55-1.05h1.54c0-1.07.65-2.25,1.75-2.25.78,0,1.22.79,1.99.79,1.65,0,4.62-1.18,5.72-1.18h4.4c1.32,0,2.1-.8,3.08-1.99v-.91c-.66,0-1.09-.14-2.21-.53.89-1.72,3.54-2.9,3.54-5.28,0-1.31-1-2.5-2.31-2.5-.89,0-.67-.14-1.44.52l.55-.52c-.44.26-.55.66-1.32.92v-.92c.34-.14.54-.53.54-.93,0-1.04-1.2-1.72-1.2-2.77,0-3.16-2.86-4.09-4.62-6.2-1.33-1.59-.99-4.75-3.09-5.55-.88-.26-1.43.26-2.55-.13.12-.51.46-.92.9-1.05,0-2.79,3.4-4.35,2.97-8.05h-6.5c-.21-.39-.32-.65-.32-1.05.32-1.84,2.75-1.58,2.75-3.42,0-.27-.66-1.19-1.1-1.19h-3.19c-.67,0-1.77,1.05-1.77,1.71s-.44,1.19-.44,2.24c-.76,0-1.53.53-1.53,1.59,0,.26.32.66.54.79,0,.26-.22.78-.44.78s-.77-.38-.77-1.17h-1.76c0,1.71.88,2.1,2.53,2.5ZM513.22,388.23c-.66.4-.77.92-.77,1.58h1.22c0-.66.11-1.19.11-1.58h-.55ZM962.33,260.36c1.1,0,1.65-1.19,2.42-1.99.56.8,1,1.31,1.99,1.31,1.1,0,1.76-1.05,2.42-1.05.89,0,1.33-.93,2.21-.93.77,0,1.21,1.32,1.99,1.32,1.31,0,1.87-1.32,2.75-1.32h2.97c0-1.05,1.54-2.5,1.98-4.35-2.3-.78-8.8-3.56-10.79-3.56-1.32,0-1.86,1.59-1.86,3.56-2.98,0-3.21-4.22-6.62-4.22-2.32,0-4.96,2.25-4.96,5.27,0,3.18,2.64,5.95,5.5,5.95ZM574.68,465.35c-1.66-.4-2.32.87-3.75.87-1.54,0-2.54-1.72-4.85-.41v.93c.33.66,1.21.52,1.54.66,1.77.66,3.2,2.91,5.07,3.44,0,.39.55.54.88.54s.66-.54.66-.93c0-1.05-.55-1.19-.55-2.12,0-.53.55-1.45.55-1.45l.45-1.53ZM556.06,450.65c.33-.79.66-3.7.99-5.27-.33-.14-.45-.8-.45-1.46-.54.13-.98,1.32-1.75,1.32-.22,0-.56.27-.77.27.55,1.04.88,4.89,1.98,5.15ZM554.4,456.07c0,.92-.55,1.57-.66,2.64,0,1.06,0,2.76,1.1,2.76.87,0,2.88-1.86,2.88-3.7,0-2.12.28-3.3-.68-5.4-.33,0-.66-.78-1.43-.78-.99,0-1.1,1.31-2.31,1.72.11,1.04,1.1,1.7,1.1,2.77ZM537.89,458.97c0-.4-.56-1.19-.56-1.45-.66.12-1.1.51-1.76.92.11.13.99,1.18,1.43,1.18.33,0,.88-.26.88-.65ZM561.23,384.28c0-1.33-.77-1.07-.77-2.65h-2.1v1.31c0,1.33,1.22,1.73,2.53,1.73v1.05c.11-.67.34-.4.34-1.44ZM562.55,385.6l-.21-.54c-.12.13-.44.4-.56.66.12.13.77.79,1.55.79,2.42,0,1.54-4.62,3.41-5.29-.55-2.23-.66-3.42-2.87-3.42-.77,0-2.1,3.42-2.1,3.96,0,.79,1.22,1.84,2.31,2.11,0,.66-.77,1.58-1.55,1.72ZM586.23,368.16c-1.97.14-2.52,2.51-2.52,3.3,0,.66-.34,1.2,0,1.72.77-1.2,1.65-1.84,1.65-3.29,0-.67.65-1.19.87-1.73ZM596.15,367.52c.43,0,1.87-.94,1.87-1.33v-1.59c.22-.14.78-1.05.88-1.72-.43-.26-.66-.53-1.21-1.32,0,0-.98.67-.98,1.32s.43,1.06.76,1.58c-.89.14-1.55.92-2.42,1.05,0,.8.1,1.99,1.1,1.99ZM608.81,478.09c-1.87-.66-4.52-1.31-6.94-.79,1.22.79,3.31,1.05,4.19,1.05.77,0,1.32.67,2.76-.26ZM634.81,475.73c-1.87.38-4.74,1.71-6.39,2.63,0,.26.33.67.55.67,0,.4.43.66.77.66.99,0,3.08-.66,3.42-1.45.1-.42-.13-1.19.21-1.32.66-.4,1.21.14,1.43-1.19ZM694.93,570.34c.87,0,1.76-1.06,1.98-1.58-1.42,0-2.19.25-3.19.66.12.65.88.92,1.22.92ZM678.2,299.56c-.22,0-1.43,2.5-1.43,3.03,0,1.33.64,1.58,1.98,1.58,1.87,0,3.18-1.32,4.62-2.23v-1.72c-1.54-.26-2.31-1.98-3.86-1.98-.55,0-.76,1.32-1.31,1.32ZM709.8,294.01c0,1.59,2.42,3.31,3.86,3.31,0,0,1.43.25,1.43-.67,0-2.63-5.29-5.28-5.29-2.63ZM750.32,272.77c-1.09-1.06-1.42-2.52-2.74-2.52-.99,0-1.66,1.46-1.66,2.64,0,.4-.32,1.32,0,1.32,1.32,0,3.86-.92,4.4-1.45ZM973.56,271.57h3.31c-.12-3.03-2.32-5.28-5.18-5.28-2.54,0-3.97,1.86-5.29,3.95l.56-.65c2.1.92,4.63.65,6.6,1.97ZM995.37,259.95c1.77,0,4.96-.51,4.96-1.97,0-.66-.44-1.33-1.1-1.33-.43,0-12-1.71-13-2.63l1.1,1.05c0,3.3,5.19,4.88,8.04,4.88ZM969.16,264.58c0-1.85-2.96-2.11-2.96,0,0,1.2.09,1.72,1.31,1.72.77,0,1.65-.65,1.65-1.72ZM484.7,327.79l.21-.27c0-3.68-4.08-2.76-4.08-6.59,0-.4.33-.92.66-1.19-.98,0-1.65.67-2.64.67-1.11,0-1.98-.14-1.98-1.72-.44.4-.44.26-1.21,0-.22.53-.44.93-.44,1.98-.99-1.19-2.32.39-3.75.39-1,0-1.87-.39-3.53-.39,0,.39-.11.93,0,1.31-.43-.25-.66-.66-1.54-.92l-2.64.8c-.66,0-.99-.67-1.44-1.2-.32.53-.22.79,0,1.72-.55.14-1.22.79-1.98.79s-1.77-1.72-1.65-2.64c-.12-.79-.55-1.18-.66-1.98h-.88c-.88,0-1.1,1.46-1.98,1.46v1.05c-.67-.39-1.22-.65-2.2-.26.21,1.45,4.29,2.9,5.61,2.9,0,.4.12.79.45,1.06-1.21.53-4.07,1.19-5.73,1.19,1.11,1.32,2.98,0,4.74.53-.22,1.45-.56,2.25-.56,3.96-.33,0-.65.39-.99.65,2.43,0,3.31,1.85,4.84,2.39,2.97,1.19,5.84,2.38,9.91,2.38,3.75,0,5.84-2.24,8.49-3.31,1.43-.53,4.08-2.9,4.96-4.76ZM294.71,540.37c-.77-.39-1.32-2.24-2.53-2.64l-1.65-.12c-.11-.26,0-.65,0-.93-2.53,0-5.28-1.45-6.83-3.3-.21-.26-1.1-1.58-1.87-1.58-3.62,0-5.95-3.3-10.79-3.3s-7.27,2.24-9.03,5.8h.99c1.1-1.31,4.08-3.17,6.17-3.17.55,0,1.1-.13,1.54.41-.33.39-.44.92.22,1.46h3.19c1.54,0,2.31,1.96,3.86,1.96.88,0,1.43-.39,2.31.14.44.26.32,1.18,1.21,1.18.32,1.99,2.09,1.85,3.75,2.78-.1.65-.56,1.18-1.1,1.18v.8c2.09,0,3.85.91,6.39.91,1.32,0,3.41,0,4.18-1.59ZM267.51,533.53v.91c-.33,0-.99.27-.99,1.19,0,.26,1.43,0,1.54,0,.23-.66.11-1.31,0-1.98l-.32-.12h-.22ZM282.93,547.64c0,1.06.89,1.98,1.76,1.98,1.32,0,2.32-.52,3.64-.78-.11-.53-.33-.94-.99-1.2l.22.26c-.66-.26-2.2-1.06-3.52-1.06-.45,0-1.11.28-1.11.8ZM317.62,547.38c0,1.32,1.43,1.46,2.75,1.46.66,0,1.43,0,1.77-.8-.33-.79-2.98-1.47-3.3-1.47-.34,0-1.22.13-1.22.81ZM294.94,546.84c0,.8.66,1.99,1.32,2.12,0-.39.11-.65.11-1.06.55.41.55,0,1.32,0,1.32,0,3.96-.4,4.96.41.55.39.33,1.7,1.32,1.7,1.21,0,1.11-2.37,2.54-2.37.55,0,.44.67,1.1.67.77,0,1.21-.54,1.98-1.07h4.07c-.77-1.32-1.87-1.84-2.97-2.9l.54.54c-1.98-1.19-2.64-3.43-6.16-3.43-1.21,0-1.88.53-3.3.53-.99,0-1.65-.92-2.65-.92-.33,0-.88.52-.88.92,0,.78.78,1.45,1.43,1.45,0,1.04.11,1.97.77,2.77-1.32.79-2.42.12-4.95.12-.11.14-.33.53-.55.53ZM334.69,579.7c0,.4.66,0,1,0,.66,0,1.1-1.19,1.31-1.71v-.93h-.99c-.66,0-1.33,1.32-1.33,2.64ZM371.15,616.92c-1.32,0-2.2,1.31-2.2,3.31,0,1.19,2.87,3.56,4.51,3.56,1.32,0,2.98-3.04,2.98-4.22,0-.26-.33-1.19-.77-1.19-.55,0-1.54,1.45-1.77-.26-.87,0-1.65-.66-2.31-1.19,0,.12-.33,0-.44,0ZM296.81,794.28h.99v-3.96c.11-.4.44-.67.44-1.46,0-1.04-.33-2.1-1.32-2.1-.66,0-1.32,3.96-1.32,3.96v1.73c0,.53.55,1.71,1.21,1.84ZM141.52,415.68h0s0,0,0,0h0ZM419.38,642.92c0,9.75-4.48,12.35-7.44,17.76-.66,1.18-1.14,1.51-1.8,2.7-1.11,1.98-2.32,2.25-3.42,3.56-1.64,1.97-.02,6.24-.02,9.41,0,2.37-.75,4.58-.75,6.3,0,.66-.44,1.19-.54,1.57-.44.67-1.43,1.99-1.43,3.05,0,1.32-.34,3.96-.55,4.48-1.65,3.04-2.21,4.37-3.85,7-.44.78-.34,2.37-.56,2.89-.65,1.6-2.97,3.45-4.84,3.45-2.09,0-3.75-.13-5.39.78-.66.42-.77,1.07-1.1,1.46-2.64,3.17-5.4,1.32-7.38,5-.89,1.74-2.32,1.74-3.19,2.78-1.43,1.72-1.21,3.57-1.21,6.09v6.19c-2.21,1.31-3.31,3.55-4.41,6.34v-.13c-.77,1.72-.66,2.63-1.54,4.35-1.98,3.56-4.19,3.95-6.06,7.37-2.2,3.97-3.05,10.56-8.11,10.56-1.76,0-4.22-1.44-4.99-1.44-1.54,0-2.97-1.59-4.62-1.59-.33,0-.88.26-.88.67,0,1.19,1.65,1.83,1.98,2.23.88,1.06.88,2.51,1.32,4.09.33,1.46,2.09,1.46,2.09,2.9,0,1.61,0,2.47-.54,3.51-1,1.86-1.77,2.69-2.87,4.02-1.87,2.23-4.18,1.59-6.83,2.65-1.76.63-5.4-.82-6.39.38-1.43,1.7-.33,5.66-1.1,7.52v1.32c0,.66-1.76,1.58-2.53,1.58-2.32,0-2.76-1.84-4.96-1.84-.77,0-1.11.92-1.11,1.58,0,1.85,1.33,5.28,2.31,5.28.56,0,1.22-.81,1.55-.92.44.52.99.67.99,1.31,0,.79-.87,1.72-1.1,1.72-1.32,0-1.76-1.19-2.86-1.19,0,1.46.66,1.72,1.2,1.99-1.98,2.37-1.98,4.74-2.64,8.04-.22,1.46-2.2,1.59-2.97,1.72-1.76.53-3.3,2.37-3.3,4.62,0,5.15,4.95,3.31,4.95,7.41,0,3.68-2.75,4.08-4.29,5.92-.88,1.06-.55,2.77-1.21,4.49-.77,1.85-2.53,1.05-3.52,2.24-1.32,1.58-1.88,3.43-1.88,5.93,0,1.33.99,2.91,1.65,3.04,1.98,1.33,1.87,7.41,3.3,9.1,2.43,2.91,5.4,4.11,8.37,5.83-.44.78-1.1.39-1.76.39-1.65,0-4.4,2.5-5.39,2.5h-1.22c-.32,0-.76.54-1.1.54h-3.08c-2.54,0-1.65-3.57-3.42-4.23-1.65-.66-4.08-.66-4.08-3.02h-2.09c-.88,0-1.1-1.07-1.21-1.73-3.09,0-3.97-1.83-5.4-3.55-.33-.41-.99-1.07-.99-1.33,0-1.17,1.97-1.05,2.09-2.23-.32-.14-.55-.4-.88-.66.33-.66.77-1.45.77-2.23,0-3.17-2.97-2.65-2.97-5.42v-1.85c0-2.89-1.65-7.52-1.65-9.77,0-2.36,2.54-3.3,2.54-5.41,0-1.04-1.32-3.17-1.54-4.61v-1.33h.11c0-.8.44-1.45.99-1.45,1.99,0,1.21,2.39,2.86,2.39l3.63-19.54v-1.99c-.32,0-.66-.12-.98,0-.77.4-.89,1.46-1.65,1.46-.88,0-1.54-3.03-1.54-4.49,0-2.5.77-3.57,1.1-5.94.77,0,1.1-.39,1.1-.79,0-.8-.66-1.45-.66-1.45-.44,0-.55-3.69-.55-4.62,0-3.04,1.55-6.08,2.53-7.93.45-.91.66-2.78,1.22-3.7.33-.51.88-.39.99-.92.77-3.04.77-5.27,1.43-8.45l-.12-9.89c-.65-2.38.55-4.22.55-6.33,0-5.01,2.54-8.32,2.54-12.81v-1.19c0-.93.55-3.3.77-4.62v-5.79c0-1.86.99-5.42.99-7.54,0-1.32-.55-9.11-.87-10.56-1-3.16-2.76-5.13-4.75-6.33-1.65-.92-2.86-.66-4.08-2.11-1.32-1.59-1.98-2.11-3.52-2.64-3.09-1.19-4.62-3.05-6.61-5.42-.88-1.04-.45-2.51-.45-4.08,0-2.11-1.64-3.16-2.08-5.01-.88-3.18-3.09-5.56-3.86-8.46-.77-3.02-1.43-4.73-2.42-7.24-.33-.79-1.1-.55-1.43-.92-.77-.94-.99-2.77-1.32-3.71-.33-.79-1.21-.52-1.66-1.04-1.21-1.45-2.75-4.09-2.75-6.46,0-1.59.77-3.44,1.21-3.97.99-1.98,2.98-2.5,3.41-4.63-.98-.78-.87-.13-1.65-.13-1.54,0-1.77-2.64-1.77-4.47,0-3.03,2.78-2.5,2.31-8.31,2.98,0,3.75-3.55,4.63-5.68,1.21-2.89,4.08-1.97,4.73-5.54-.54-.26-1.1-.93-1.1-1.33l.44-1.05v-.66c0-1.04-.66-1.85-.66-2.91,0-1.58.56-2.1.56-3.41,0-2.79-1.99-2.4-1.99-4.76,0-.3.08-.58.18-.83-.12.1-.22.17-.26.14-.22-.27-1.24-.64-1.24-1.03,0-.53.44-.79.66-1.32-1.21-.67-1.54-2.38-2.75-2.38-.77,0-3.86,2.65-3.86,3.43,0,.53.66,1.06.89,1.19-.23,1.33-.78,1.99-1.66,1.99-1.76,0-2.86-2.52-3.74-3.56-.77-.93-2.54-.14-3.31-.14-.21,0-.55-.52-.55-.79-1.54-.41-1.54-1.72-1.98-2.79-.34-.78-4.08-3.55-4.18-3.55-.22.4-.22.92,0,1.19h-1.1c-1.66-1.32-.55-3.17-1.11-5.14-.33-1.32-.88-1.6-1.43-2.25-1.76-2.12-3.63-3.31-4.29-6.47h-.66c-.77,0-1.33.66-2.1.66-2.1,0-3.19-1.46-4.63-2.25-2.09-1.18-3.63-.52-5.84-1.84-3.41-2-3.85-5.03-6.82-6.74h-.66c-.88-.65-1.54-1.06-2.43-1.06-1.98,0-2.31,2.65-4.19,2.65-.87,0-1.76-.93-2.2-1.19-.87-.53-1.65-.27-2.53-.27-1.32,0-5.07-3.17-6.17-3.82-1.21-.66-1.99.13-3.2-.27-1.54-.52-1.88-2.1-3.41-3.03-1.43-.79-2.2-.53-3.64-1.31-.66-.41-.88-.53-1.21-.92-1.33-1.6-4.74-2.51-5.07-4.23-.99,0-1.65-1.46-1.65-2.64,0-1.45,1.1-2.26,1.1-3.69,0-1.73-.89-2.12-1.1-3.04-1.32-4.76-5.06-8.59-7.49-11.49-1.1-1.32-2.87-1.85-3.97-3.17-.88-1.05-.1-2.37-.66-3.82-.98-2.37-4.4-2.64-4.4-5.81-.99-.26-.88-.39-1.21,0-1.44-1.71-2.54-3.17-3.75-4.61-.99-1.2-.65-3.44-1.65-4.62-.99-1.19-.78-4.1-1.65-4.62-1.87-1.07-3.63-.92-5.07-2.64-.33.51-.22,1.31-.22,1.72,0,2.76,1.09,4.47,1.97,6.71.77,1.97,2.22,1.98,3.32,3.31,1.54,1.84,1.76,3.17,2.31,5.4.77,3.03,2.98,4.49,3.75,7.26.88,3.17,1.55,6.6,3.52,8.19.89-1.05,2.2,1.19,2.2,2.24,0,.66-.44,1.99-.77,1.99-.22,0-1.68-2.27-1.8-2.82-1.97,0-3.04-3.13-4.25-4.05-.66-.53-.78-.53-1.11-1.19v-3.43c-1.2-1.46-2.09-2.9-3.19-4.22-1.54-1.86-3.96-1.46-5.06-3.43.55,0,3.16.48,2.19-1.17-1.63-2.78-3.44-5.61-5.37-7.09-1.31-1-1.23-4.68-1.89-6.26-1-2.37-1.98-3.16-2.76-6.21v-.91h.22c-1.65-3.96-7.27-6.74-11.23-8.57-.88-.39-.55-1.86-.88-2.91-1.54-4.62-4.63-6.21-4.07-11.61-2.31-.39-4.72-6.25-6.61-10.16-.54-1.14.44-1.99,1.11-2.5-1.21-2.9-.04-7.77-1.11-11.09-1.03-3.21,1.87-10.7,1.87-14.79,0-2.9-2.75-4.09-2.75-6.98,0-.8,1.22-.92,1.66-.92,1.65,0,2.63,1.05,3.19,2.25.55-.81,1.54-2.39,1.54-3.57,0-1.3-.99-1.71-1.44-3.02h0s0,0,0,0c-.44-.26-1-.54-1.21-.8-1.1-1.32-3.85-1.58-4.19-2.9-.88-3.43-4.73-1.7-5.28-4.35-3.75,0-3.97-3.57-4.74-6.6-.1-.41-2.97-2.51-2.97-2.51-1.32-1.05-.11-2.77-1.1-3.97-.66-.79-1.55-.79-2.42-1.04-1.54-.54-1.1-4.09-1.1-5.82,0-.78-.66-1.18-.66-1.84,0-.93,1.54-1.18,1.54-2.63,0-2.53-1.56-3.31-2.59-4.33,1.03,1.02,2.58,1.8,2.58,4.33,0,1.45-1.54,1.71-1.54,2.63-.55,0-.55.13-1.11.13-1.87,0-4.63-2.5-4.63-3.96v-1.98c0-1.98-1.32-1.98-3.31-1.98-1.54,0-1.98-1.18-1.98-1.98,0-1.06,1.65-1.18,1.65-2.24v-1.72c-2.09.13-1.54,1.72-2.98,1.72-.44,0-1.65-1.19-1.65-1.98,0-1.58.77-2.11,1.1-2.77-.55-.65-1.55-1.84-1.98-.93-1.66,0-2.43-.91-3.31-1.96-.33,1.05-.77,2.36-1.65,2.36-2.31,0-3.86-3.82-5.18-5-2.85-2.52-6.6-2.39-9.9-4.63h-6.06c-3.63-1.45-8.48-1.97-10.35-6.6-1.33.66-3.53,1.31-4.52,1.98.32.93.54,1.33,1.1,1.85-1.43,2.62-8.48,7.39-11.01,7.39-.44,0-1.1-.41-1.1-.94,0-.79.66-.93.88-1.06-.54-.92-.11-.92-.11-1.58,0-2.89,1.65-5.15,4.85-6.34,0-.38.11-.92.11-1.31h-1.33c-2.64,0-9.91,7.27-9.91,11.62v1.98c0,3.03-2.42,4.09-4.95,5.28-1.43.66-1.87,1.98-2.75,3.3-1.66,2.5-5.4,3.83-7.16,5.95-1.66,1.97-5.62,3.43-8.81,3.95-3.96.79-6.17,6.33-10.79,4.75,1.31-2.51,3.42-1.45,5.28-2.78,1.33-.92,2.32-3.55,3.53-4.35,1.87-1.32,3.97,0,5.29-1.98,1.87-2.9,6.16-5.14,8.81-7.26,2.53-1.98,2.53-5.94,5.17-7.91h-1.66c-1.65.78-2.42,1.71-4.06,1.71-1.33,0-1.88-.65-2.98-1.06-.33,1.06-.66,1.45-.77,2.39-2.65-1.2-3.41-1.98-5.29-3.7-.21.79-.1,1.44-.1,1.98h-1.32c-.67,0-1.22,1.05-1.66,1.05-.66,0-1.09-2.25-1.09-3.3v-2.64c0-.39.11-1.98-.88-1.98-.88,0-1.77,2.24-2.2,2.24-1.44,0-6.61-4.88-7.38-6.06.55,0,1.11-.4,1.65-.4-.88-2.9-4.4-3.56-4.4-5.68,0-3.95,5.94-7.25,8.26-7.25.99,0,8.48-3.57,8.48-5.28,0-.93-1.76-2.78-1.87-3.17,1.11-.8.89-.66,1.65-.13v-1.99c-1-.14-1,0-1.65,0-1.77,0-2.43,2.25-4.73,2.25s-2.99-1.32-4.63-.93h-5.83c-.11-1.97-1.43-2.5-1.43-3.7,0-.4.21-.92.33-1.32-1.77,0-2.76-.79-3.31-2.11,2.75-1.98,7.27-3.69,9.91-5.8h1.97c0,4.23,1.77,3.03,4.08,3.03,1.54,0,1.77.4,3.08,0-1.09-4.23-3.41-4.49-6.6-6.35-.88-.51-2.21-4.48-3.3-5.26-1.32-.94-5.83-1.99-5.83-2.91,0,0,1.53-3.3,1.65-3.7h6.06c3.3-5.27,8.27-10.29,14.09-12.54,1.54-.51,2.53.4,4.07-.26,1.76-.79,2.87-3.69,4.74-3.69,1.44,0,1.99,1.45,3.41,1.99-.55.79-.66,1.05-.99,1.71,1.1.26,2.2-.65,2.75-1.71,1.21.53,1.54.91,2.54,1.32h5.5c1.33,1.05,1.76,1.71,3.3,2.63h8.49c2.2,2.64,9.02,3.3,12.44,3.3,1.99,0,3.2-.92,5.18-.92,3.19,0,4.19,1.59,6.94,2.64v-.14c1.1.27.55.54,1.31,0,0,.4,1.36,1.59,1.54,1.72,4.53,3.31,9.47,3.96,12.22,3.96.99,0-3.97-3.12,3.19-3.44,1.04-.03.54-4.15,3.42-.91.96,1.07,3.85-1.46,5.06-1.73,3.08-1.43,4.29-1.71,7.7-2.63.33,1.05,1.11,1.83,1.99,1.83,2.31,0,1.54-3.81,3.74-3.81.66,0,3.63,5.94,5.73,5.94,2.21,0,2.21-2.9,4.3-3.43.22,1.05,1.43,3.56,2.64,3.56,1.76,0,2.64-1.72,4.74-1.72,6.71,0,10.04,6.57,16.73,5.94,6.3-.59,5.75-1.42,8.82,3.69-.66.8-4.03.31-4.03,1.49,0,.4,0,2.32,4.36,2.07,2.42-.12,3.85-1.19,6.06-1.19h7.04l1.66.94c1.87,1.04,2.31,4.34,4.51,4.34.55,0-.67-3.04-.67-3.95,0-4.49,5.62-.94,5.18-5.28-1.32,1.04-4.22,2.09-5.98,2.09-.88,0-1.4-.51-1.4-1.43,0-2.91,6.61-3.04,8.59-3.69,1.43,5.41,8.37,7.92,14.32,7.92,6.28,0,7.49-.28,9.36,0,0-2.78.77-4.23,2.76-4.23,1.65,0,4.62.92,4.95,1.58.88,1.45-1.96,5.79,1.65,4.61,0-6.46,7.27-3.81,5.84-9.23-.89.54-1.54.8-2.32,1.32,0,0,.89-3.16.89-3.96,0-4.48-7.49-1.84-7.49-6.2,0-1.84,1.43-1.72,1.43-3.04s-.88-1.97-.88-3.29c0-1.98,1.76-1.58,3.08-1.98-.11-1.32-.99-2.97,1.11-2.9,4.29.13,6.72,2.75,6.82,6.86.05,1.95,3.31,1.86,3.31,4.36,0,1.72-1.99,2.63-2.76,3.17,1.33,1.99,3.75.66,5.51,1.99-.55.52-.77.91-1.1,1.58,2.32,1.32,2.54,2.9,2.54,5.15,3.41,0,1.21-5.68,4.4-5.68.88,0,4.08,3.7,4.08,4.63,0,1.97-1.87,1.57-1.87,3.29,0,1.45,3.27,7.6,5.75,3.81,1.59-2.44,1.3-4.2,2.17-6.45.55-1.32,3.09-1.32,3.09-2.64,0-1.19-1.65-1.84-1.65-3.55,0-1.59,1.43-2.65,2.75-2.65.99,0,1.77.8,2.75.93,4.52,0,3.64,3.31,7.16,3.31,0,2.24.44,2.1,0,3.29-3.47,2-1.98,4.11-1.98,5.02,0,.8,2.53,2.12,2.53,3.31,0,1.71-5.67,7.53-6.39,6.2-1.35-2.47-1.88-.13-1.33.66-1.97,0-2.64,1.06-3.63,1.06-1.54,0-2.42-2.64-4.85-2.64-.87,0,.78,2.38.78,2.89,0,1.59-3.2,4.36-4.96,4.36-2.09,0-3.53-1.97-4.95-3.03h-1.99c1.66,3.97,5.4,3.3,9.14,4.35v1.99c-1.76,1.58-3.19,4.88-5.83,4.88h-2.43c-1.32,0,.09,3.67-2.23,2.82-8.95-3.3-5.62-.59-6.6-.99,1.54,1.06,5.75,1.21,5.75,3.19,0,3.17-3.31,1.86-5.17,2.64-.88.4-2.75,5.54-3.64,6.59-2.53,3.04-3.85,6.2-3.85,11.48,0,3.83.44,4.36,0,5.95,1.1-.26,1.65-1.32,2.75-1.32,2.42,0,4.18,7.38,4.18,10.55,1.66,0,2.43-1.98,4.08-1.98,1.54,0,4.08,2.24,4.95,2.63,4.85,2.24,9.47,4.36,13.55,7.93h7.16c3.08,2.36,2.42,5.68,2.42,9.89,0,3.83,3.88,7.94,6.6,10.56,1.04,1,1.99-1.59,3.31-1.59.11-1.44,1.54-2.37,1.98-3.16-1.54-2.24-.03-9.42-3.86-11.75,2.21-.53,8.81-6.46,8.81-8.84,0-8.71-3.83-10.41-6.37-15.56,1.43-.67,4.56-1.65,4.17-5.55-.2-1.97-3.6-4.88-2.21-5.94,3.56-2.69-.33-4.61-.33-5.94,0-2.37,1.65-3.29,3.3-3.29,3.09,0,5.07,2.24,8.27,2.24,1.65,0,1.65-1.31,3.08-1.31,3.08,0,3.74,4.49,6.83,5.01,0,4.89,5.95,2.25,6.4,5.95.32,2.76,1.09,9.24,2.97,9.24,1.32,0,1.66,2.89,3.64,2.89,2.75,0,6.28-4.88,6.28-6.86,0-1.85,1.76-3.03,2.53-3.7.44.54,1.54,1.72,1.87,1.72.33,3.56,5.01,4.26,3.85,7.26-.93,2.42,2.64,5.15,3.63,5.54-.22,1.32.77,2.37.77,3.69,0,1.58-1.1,2-1.65,2.38,1.43,1.32,2.87,3.17,5.28,3.17v.4c0,4.48,5.62,5.93,8.26,5.54.11.65,1.05.84.94,1.5-.66,2.51-6.78,3.51-8.98,4.97.11.26.77.52,1.11.52,2.64,0,7.93-2.24,10.45-3.96v1.59c1.27.69,0,1.98.89,1.98,1,1.97,1.87,3.29,1.87,6.33,0,4.21-8.87,4.79-10.46,7.26-3.27,5.06-6.28,2.91-11.78,2.91-4.18,0-6.61-.93-10.79.65-2.31.93-1.22,2.12-2.75,3.95-2.42,2.9-4.73,1.73-6.16,5.28,3.3-.53,5.51-4.61,10.35-4.61,2.31,0,5.73-.54,5.73,1.97,0,2.64-3.97,3.31-4.63,4.36.99,0,2.2.39,2.76.39-.23,1.33-1.1,2.38-1.1,3.17,0,3.31,5.06,7.01,8.26,7.01.66,0,3.53.13,3.53,1.57,0,1.07-7.54,4.52-8.1,4.65-2.2.79-4.24,4.34-5.13,4.34-.65,0-2.19-2.12-2.19-3.31,0-2.9,3.96-5.01,6.5-5.26-1.76,0-1.65-.14-1.65-1.98-1.66.13-1.66,1.84-2.65,2.63-.99.78-3.73.25-4.4.25-.33,0-.88.14-1.1,0v.4l.05.3c.15.35.3.7.5,1.01-.77,1.45-1.98,2.25-3.53,2.25-1.32,0-1.43-.66-2.53,0-1.76,2.12-5.51,3.58-5.51,8.58,0,.4.11,1.05.44,1.2,0,.66.44,2.37,1.1,2.37.23,0,1.21-.91,1.21-.91v.91c-1.32.4-3.2.92-3.63.4-2.21,1.97-5.95,1.19-8.16,2.91h1.1c.99,0,1.98-.67,2.76,0-1.54.66-2.65.66-4.19.66-.33,0-.66-.14-.99-.14-.34.14-.66.53-.66.92,0,.67.99,1.6.99,1.6-.22,1.05-2.31,5.67-3.09,5.67-.33,0-.55-.8-.77-1.05l-.55.64c.23,1.07,1,1.47,1,2.52,0,.79-2.21,5.41-2.54,5.41-.21,0-.44-.52-.44-.8v-1.44c0-.92-.98-3.04-1.22-4.37-.21.67-.1,1.72-.1,1.72,0,.92.56,3.3.56,4.63s-.67,1.19,0,1.97h.76v1.32c0,1.06-.9,1.62-1.45,1.62.44.91.96,1.02,1.51,1.14-.22,1.45-.72,1.33-1.71,1.33v1.06l1.29.92c-.33.53-.68,1.31-1.29,1.45-1.3.3-1.87,1.32-2.75,1.59-1.32.51-1.22.91-1.87,1.71l.3.26c-5.16,3.48-11.76,5.99-11.76,15.58,0,4.35,3.08,5.67,3.08,9.9v.66c.34,1.57,1.32,2.9,1.32,5.29,0,2.76-.55,5.27-2.42,5.27-1.65,0-1.55-2.11-2.2-3.3-1.32-2.11-2.43-2.77-3.3-4.88-1.77-4.23-.45-12.29-5.29-12.29-.99,0-1.44,1.73-2.42,1.73-1.99,0-3.19-3.05-5.84-3.05-1.54,0-1.87,1.06-2.75,1.06-.33,0-.77-.65-.77-1.06-1.76.54-4.08.28-5.95,1.06,1.1.39.88.39,1.54,0-.11,1.99-1.1,3.17.22,4.22-3.09,1.84-5.73-2.64-7.93-2.64-.67,0-.99,1.05-1.65,1.05-1.22,0-1.87-1.32-3.08-1.32-3.19,0-4.73,3.31-6.06,4.89-.89,1.05-1.88.12-2.97.66-2.43,1.04-3.86,4.6-3.86,8.58,0,.38.55.91.55,1.31-.09-.01-.19-.03-.29-.05l.06.32c.22.79.44,1.32.44,2.11,0,2.38-.77,3.3-1.1,5.28v7.38c-.22,1.05.66,2.12.88,2.65.44,1.19-.11,1.97.33,3.14.44,1.08,1.87,2.91,2.65,3.85,1.97,2.38,1.97,4.62,4.85,5.68.98.4.98,1.59,1.87,1.59,2.09,0,3.85-1.87,6.05-1.87,1.21,0,1.65.8,2.1.8.88,0,1.43-1.57,1.54-2.1.44-1.59,2.31-3.3,2.31-5.29,0-3.82,3.63-5.14,6.61-5.14.99,0,1.76.14,2.2.4.44.14,1.87.26,2.53.26v1.2c0,1.84-1.87,4.22-1.87,6.73,0,2.11-.66,3.03-1.33,4.36v-.93h-.88v6.34c0,1.31-1.32,1.84-1.98,2.63v.67c0,.91.66,1.43,1.33,1.43,3.62,0,6.6-.79,10.46-.79,2.65,0,3.31,2.27,5.28,2.78v1.98c0,1.19-.11,4.48-.77,5.8v8.05c0,2.91,2.32,4.1,4.07,5.14,1.21.67,1.21,3.17,3.08,3.17,2.86,0,4.3-2.63,6.94-2.63,3.07,0,4.43,2.64,6.19,4.23-.04.11-.35.53-.73,1.02.35-.3.65-.59.81-.9.88.27.55.27,1.32,0v-.79c0-.25.44-.65.66-.65,0-1.32,1.11-1.72,1.76-2.24.67-.53.77-2.25,1-3.31.54-2.12,1.54-2.5,2.97-3.04,2.64-1.05,4.4-1.58,7.17-2.64,1.43-.53,1.76-2.5,3.18-2.5.55,0,1,1.46,1,1.58,0,1.05-.67,1.59-1.1,1.59-.33,1.97-.99,4.21-.99,5.39,0,1.45.6,4,1.82,4,.44,0,1.05-1.61,1.05-2.14,0-1.58-1.32-2.51-1.32-4.1,0-1.97,1.76-1.71,2.75-2.51h2.63c-.44-1.58-2.09-.92-2.09-2.5l1.93.03c.44,2.12,2.91,2.86,4.57,3.27,0,1.3.66,2.23,1.32,2.36h5.95c0,1.19,1.33,1.45,2.21,1.45,1.65-.26,2.74-.26,3.41-1.85.11-.4,2.42-.4,2.75-.67,1.1,0,3.08.41,3.08.41-.44.4-1.32.53-1.65.26v1.06c.77,1.86,3.08,2.24,4.73,2.91,1.43.51,1.1,2.5,1.54,4.21h3.08c2.09,2.51,3.09,2.11,4.4,5.39.22.53,1.1.8,1.65.8.77,3.71,5.39,3.29,8.37,3.97h2.87c.76.38,2.53,1.45,3.64,1.45v.26h.65c1.77,0,4.07,4.35,5.95,4.89,0,1.57,1.43,5.79,1.99,7.24.55,1.32,1.98,1.32,1.98,2.64-1.76,2.64-4.95,3.96-4.95,7.93,0,1.33.99,1.18,1.54,1.45,1.1.67,1.65,1.72,1.87,3.04h2.64c0,.4.22,1.44.55,1.44.44,0,.88-.93,1.22-1.57,1.1-2.13,2.42-4.89,4.19-4.89,1.98,0,5.94,2.5,7.37,3.56.88.66,1.87.39,2.09,1.45.33,1.19.21,2.11.21,3.28h.78c.99-.52,1.43-1.44,2.43-1.44,2.31,0,2.75,2.13,4.95,2.13l4.18-.68c2.09.54,3.97,1.47,5.18,2.13.99,1.97,4.41,5.66,6.17,6.33,1.54.52,2.54-.27,4.07.25,2.2.81,2.75,3.58,2.75,6.35ZM277.09,442.99c0,.45.4.71.58,1.11-.12-.32-.25-.62-.36-.84.77,0,.77-.15,1.31-.15,3.2,0,10.22,1.27,10.25-3.68.03-.02.12-.11.23-.23-.11.12-.2.21-.23.23-2.75,0-7.93,1.58-10.35,2.5-.33.15-1.43.4-1.43,1.06ZM276.69,447.47c.66-.39,1.27-.77,1.73-1.04,0,0,0,0,0,0-.46.27-1.05.64-1.73,1.04ZM274.01,446.95c-1.55,0-3.2-.13-4.19,1.04-.45.53-.55,1.33-1.54,1.33-.66,0-1.32-.92-1.66-1.6,0,1.31.44,3.31,1.54,3.31,2.26,0,5.93-2.04,8.48-3.56-.55.39-1.2-.54-2.63-.54ZM246.68,419.95c-.99,0-5.71,3.78-8.24,7.61h1.65c.77-.4,1.21-.8,1.98-.93.45,1.19.77,1.31,1.65,1.31,1.87,0,1.99-1.71,2.98-1.71,1.21,0,3.19-2.51,4.84-2.9,0,1.84-.77,2.23-1.21,3.3h2.2c.12.93,1.11,1.58,1.88,1.58,1.43,0,1.87-1.31,3.08-1.31,2.64,0,3.96,1.71,6.27,1.71v1.58c-1.65.66-4.07,0-4.95,0-2.42,0-6.82,3.7-7.05,6.33,1.11-.77,1.55-1.85,2.65-1.85-1.88,2.91-2.75,9.64-2.75,13.06,0,1.46,1.31,2.65,2.52,2.65,1.66,0,2.21-3.96,2.21-5.68v-4.22c0-1.66-.03-5.65,1.19-5.75,4.01-.29,2.17-3.49,3.98-3.49.88,0,4.96,2.37,4.96,3.96,0,1.84-.88,3.03-1.21,4.88,1.32,0,1.1-.52,2.2-.92.44,2.11.44,3.03,1.54,4.09h0c1.55,0,2.53-6.33,2.97-8.45.44.54,1.76,2.24,3.08,2.24.66,0,1.11-.66,1.11-1.59,0-1.97-1.65-3.29-2.97-4.34h-2.87c-2.75-2.11-6.17-1.46-8.7-4.49-.88-1.06-.22-2.38-.88-3.96-.22-.52-4.85-5.01-5.51-5.01h-.88c0,.26.11,1.32-.12,1.85-.44-.53-1.32-2.91-2.64-2.91-1.1,0-.67,2.12-1.76,2.78-1.22.66-2.06.59-3.21.57ZM99.41,361c-.72,1-1.01,2.56-2.17,2.56-.93,0-1.87-.62-2.73-1.47.86.84,1.8,1.47,2.73,1.47,1.16,0,1.45-1.56,2.17-2.57ZM107.83,366.24c-1.64-2.36-3.14-3.92-5.41-6.64h0c2.27,2.73,3.77,4.28,5.41,6.64ZM113.87,377.15c.14.17.31.28.5.38-.19-.09-.36-.21-.5-.38-1.21-1.45-1.76-3.43-2.2-5.02-.29-1.06-1.01-1.39-1.32-1.82.31.43,1.03.76,1.32,1.82.44,1.58.99,3.57,2.2,5.02ZM114.39,377.53c.56.27,1.26.3,1.78.74-.52-.44-1.22-.48-1.78-.74ZM281.94,521.24c0,1.06,0,2.51,1.1,2.51.22,0,.55-.39.55-.66,0-.92-.33-1.71-1.21-1.85-.12,0-.45-.12-.45,0ZM281.82,513.72c-.54,0-1.32.53-1.53,1.06.65,0,1.76.13,2.86,0-.23-.4-.56-1.06-1.33-1.06ZM285.24,515.32c-.1.38.21,1.19.55,1.04l-.55-1.04ZM298.57,536.29v-1.18c-.44.79-1.32,1.45-2.2,1.18v.79c0,.13.33,0,.44,0,.55,0,1.32-.26,1.76-.79ZM112.33,387.3c.56,0,.88-.39.88-1.33,0-2.9-2.98-3.29-2.65-6.85-2.31-.53-2.86-.53-2.86,2.64,1.32-1.06.66-.4,2.42,0-.33.65,0,1.71,0,2.64,0,.13,1.22,2.9,2.2,2.9ZM104.41,374.11c-.22.13-1.1.39-1.1,0-.55-2.12,0-2.12,0-5.55-1.55,1.07-.55,0-2.53,0-.44,0-1.32.26-1.32,1.33,0,1.97,1.32,3.69,2.97,3.96,0,2.11.43,3.69,1.76,5.28,1.1-1.32,0-3.17.22-5.02ZM206.28,298.23c1.98,0,2.42.52,4.41-1.05-2.1-1.98-11.35-4.89-11.35-9.1,0-3.44-2.97-6.48-2.97-11.22,0-1.19,2.42-2.38,2.42-4.36s-1.87-2.9-3.85-2.9c-1.76,0-3.3.93-3.3,2.25,0,.4,0,.92.11,1.31-1.77,1.06-1.11,0-3.09,0-.88,0-1.98.66-1.98,1.73,0,1.19,1.65,7.38,2.54,9.1-.55.52-.55,1.05-1.44,1.05-1.98,0-1.21-3.29-1.87-4.88-.55-1.45-2.09-3.18-3.64-3.7h-2.41c.22.8.44,1.19.55,2.37-1.22.4-2.09.66-3.3.93-.78-2.38-1.87-3.96-4.96-3.96-1.76,0-2.54,1.72-3.41,2.37-.44-.79-.33-4.61-1.88-4.61-3.96,0-13.99,4.74-13.99,11.21,0,.66,2.1,2.64,3.31,2.64,1.43,0,2.09-.39,3.86.13-1.22.92-4.41-.13-4.41,2.77,0,3.7,6.06,2.37,8.48,2.37h5.83c1.1,0,1.98.8,2.76,1.32-1.32.13-1.98.26-3.63.26-4.62,0-8.05.66-10.68,3.03.77,1.58,2.75,4.63,5.17,4.63,1.55,0,4.85-.41,6.06.65,1.32,1.19.11,3.3,1.99,3.3h9.9c2.32-1.98,5.07-.93,7.94-2.64,1.65-.92.88-2.37,2.86-2.37,3.2,0,4.74,3.95,9.04,3.95,2.75,0,5.29.13,6.28-2.38-.44-.4-.99-.8-1.1-1.84-.44,0-1.65,0-1.65-1.06,0-.93.56-1.32,1.44-1.32ZM136.9,285.43c.33.66,1.1,2.64,1.65,2.64s.88,1.31,1.65,1.31c.88,0,8.48-3.3,8.48-4.35,0-3.04,4.85-8.58,8.27-9.9,1.1-.39,6.93-1.45,6.93-2.89,0-3.05-5.4-5.69-7.71-5.69-1.43,0-2.75,1.59-3.75.4-2.42-.27-3.52-1.85-5.94-2.65-1.98-.66-3.08.93-4.42.93-2.64,0-3.85-1.33-6.6,0,.11,1.44,1.64,3.56,1.64,4.61,0,4.76-5.5,8.45-5.5,12.94,0,1.59,4.41,1.19,5.29,2.64ZM162.99,249.4c1.98-.4,2.65,0,3.63,0,.44,0,1.77.4,1.88,1.99h2.53c3.31,0,5.62,5.01,10.46,5.01,1.43,0,1.98-.53,2.43-1.72-1.21,0-1.76-.13-2.2-.39.11-.26.77-.53,1.1-.53v-1.72c-.77-.14-2.75-.79-2.75-1.97,0-2.12,2.86-3.17,3.96-4.23.66.53,1.32.93,2.09.93-.11,1.05,0,1.45,0,1.71,0,1.97,2.09,4.88,4.19,4.88.98,0,1.54-1.58,2.97-1.58,1.32,0,2.53,1.72,2.53,3.3,0,1.84-2.64,5.8-3.63,6.19-.67.28-7.16-.65-7.16-.26,0,.26-7.05,2.12-7.37,2.25-2.21,1.05-4.41,1.98-7.16,1.98-1.32,0-3.09-1.2-3.09-1.98,0-1.99,1.66-1.58,3.09-1.58-.66-1.06-1.65-1.72-1.87-3.04-.67.14-1.22.93-1.22,1.73-1.87.26-3.3.91-4.63.91-1.43,0-3.08-.91-3.85-.91-.89,0-1.65-.92-1.65-1.99,0-1.32.44-1.04,0-1.97,1.1-.27,1.65-1.32,2.75-1.32.46,0,.84.07,1.22.16-.42-.19-.83-.38-1.22-.56v-1.98c.88-.12,1.87,0,1.87,0,.09,0,.32.04.6.09-.4-.15-.79-.34-1.15-.62.43-.78,1.32-1.45,2.2-1.45.11,0,.18.02.28.03-.49-.27-.83-.69-.83-1.34ZM165.15,253.32c.69.14,1.33.26,1.7.31-.59-.15-1.15-.23-1.7-.31ZM151.76,255.74c0,.92.99,1.58,1.87,1.58,1.43,0,3.09-2.78,3.31-4.62-1.1-.12-5.17.93-5.17,3.04ZM167.18,247.82h2.42v-1.72h-3.85c0,1.19.87,1.72,1.43,1.72ZM143.72,252.7c1.11,0,1.76.79,3.09,0,.21.53.98,1.98,1.86,1.98,1.21,0,2.09-1.45,2.31-2.9,1.87.27,3.52-1.84,3.75-4.09.98.66.88,3.7,2.75,3.7l4.74-4.23c0-1.05-.76-1.32-.88-2.64.76-.27,1.43-1.18,1.43-2.12,0-2.37-6.61-.26-6.61-.26-.99-.13-1.11-.27-1.98-.27-3.08,0-3.63,3.43-5.72,4.89-1.87,1.31-3.52,1.57-5.29,2.63-.44.27-2.42,2.11-2.42,2.38,0,.39.88,1.06,1.1,1.98.89-.13,1.21-1.05,1.87-1.05ZM175.11,235.28h4.74c1.32,0,2.09-.79,2.97-1.31-.44-1.71-2.31-3.3-4.62-3.3-1.43,0-8.03,2.9-8.03,4.62.87-.13,1.32-1.05,2.2-1.05,1.11,0,1.43,1.05,2.75,1.05ZM179.51,235.95c-2.31,0-9.03.26-9.03,3.31,0,1.18,1.87,3.55,3.52,3.55,2.42,0,6.06-1.18,5.84-3.95h-3.09c1.65,0,3.52-.4,4.73-1.58-.32-.52-.76-1.32-1.98-1.32ZM167.4,240.16c.77,0,1.1-.78,1.55-1.58-.66-.39-3.75-3.7-3.75-.39,0,.65,1.22,1.97,2.2,1.97ZM222.14,278.18c0-1.32.33-.14.33-1.97,0-1.46-3.2-.27-4.08-.14.78-1.19,3.53-2.25,3.53-4.88,0-.66-.78-1.33-1.1-1.33h-4.41c-2.43,0-4.85-.52-6.61,1.59-.11.4-.77.66-.77,1.06,0,1.71,2.1,1.45,3.53,1.71v3.57h-1.66c-1.87,0-3.52-1.58-4.95-1.58v2.24c3.19,3.82,6.61,3.3,9.69,6.99.66.79.88,2.24,2.42,2.24.98,0,1.21-1.59,2.2-1.98,3.53-1.59,3.88.34,4.41-6.86-.67-.26-2.1-.53-2.53-.66ZM200.44,248.08h-1.32c0,.66.16,1.15.38,1.57l-.16-.24v2.38c.88.8,1.66,1.72,2.75,1.32l.33,1.31h1.66c0,.8.55,1.59,1.32,1.59,2.2,0,6.05-1.32,8.04-1.32.44,0,.99.14,1.32.4-.66.79-2.76.79-2.76,1.97-.1.39-.1.93,0,1.32-.44.26-.77.8-.77,1.32,0,1.19,2.86.67,3.52.67.33,0,2.75,0,4.4-.67-.44-3.69.89-5.28.89-8.3,0-1.99-.23-3.31-2.2-3.31-.88,0-1.32,1.06-2.2,1.06-2.09,0-3.2-1.32-4.95-1.32-.77,0-1.22-.27-1.99.13.44,1.85,1.99,1.85,3.86,1.85v2.9c-2.75,0-3.63-2.9-6.06-2.9v1.59c.44.65,1.32,1.58,2.2,2.24-3.42,1.19-5.06-5.55-8.26-5.55ZM217.51,302.2c-.44.13-2.42-.4-2.42.65,0,.4,8.14,3.95,9.57,3.95,1.21,0,1.65-1.32,2.76-2.11-.66-1.85-5.18-6.74-6.83-6.74-2.21,0-1.76,3.7-3.09,4.24ZM232.38,266.96c-2.3,0-2.98,1.84-2.98,1.97,0,.4-.22,1.19,0,1.31h-2.52v2.25c.76,2.64,0,4.22,1.75,6.34-.1.65-.1,2.24-.1,3.95h2.19c1.33-1.58,2.21-1.98,2.55-4.35h-1.44c.66-2.64.66-.92,3.09-.92,3.31,0,4.85-2.9,6.28-5.27,0,0,1.99-1.72,1.99-2,0-.65-.12-1.05,0-1.7-3.97,0-7.06-1.58-10.8-1.58ZM197.69,244.13c.76,0,1.43-.66,1.53-1.58-2.31-.93-2.53-3.7-5.4-3.7,0,1.72,2.65,5.28,3.86,5.28ZM197.13,260.23c.88-.12,1.11.14,2.21.14.66,0,1.66-.14,1.66-1.73,0-.93-.56-1.31-.78-1.98-1.54.67-2.65,1.33-3.08,3.57ZM197.13,228.68c-.11.53-.44,1.06-.77,1.32.88.79,1.43,0,3.85,0-.22.4-.22,1.19,0,1.59-1.32.53-2.31.39-3.3,1.59.99,1.18,1.43,1.05,2.97,1.05,1.65,0,3.09-.67,3.64.53,1.98-.27,3.19.52,5.17.52,2.54,0,2.31,3.3,4.96,3.3.88,0,1.99-.39,1.99-1.72,0-1.45-2.21-2.5-3.09-3.56.22-.4.66-.93.88-1.32-.55-.66-1.77-3.04-3.31-3.04-.66,0-.99,1.05-1.65,1.05-1.21,0-1.1-3.04-3.31-3.04-.88,0-1.31,1.06-2.2,1.06-1.33,0-1.88-2.38-4.19-2.38-1.32,0-2.2.8-3.52,1.06,0,1.58.32,1.97,1.87,1.97ZM206.28,236.87c-.44,0-2.97,1.98-1,1.98,1.65,0,2.98,0,3.53-.92-.99-.39-1.33-1.06-2.53-1.06ZM247.58,262.34h1.32c-.22,2.24,3.2,2.63,5.51,1.98h8.81c.99-.8,1.21-1.44,2.75-1.71.22.91.76,1.97,2.2,1.97,3.86,0,8.81,0,9.14-4.62,0,0-.66.15-1.43-.12.12-.53.32-.91.55-1.22.32-.04.7-.13.88-.23-1.55-3.42-4.41-3.69-8.81-3.69-5.73,0-7.71,3.3-13.77,3.3-2.75,0-4.95-.79-7.6-1.58-.44.39-1.76,1.19-1.76-.66,0-.4.55-.4.77-.67-1.54-1.45-4.3.53-4.96-3.03h4.41c-.99-1.72-6.06-.93-5.18-3.97h-1.98c-.44.8-1.1,1.06-2.21,1.06-3.74,0-4.62-4.62-9.58-4.62-1.31,0-3.3,0-3.3,1.98,0,1.19,6.72,4.62,7.93,4.62.88,0,1.54-.53,2.2-1.31,1.87,2.24,2.42,4.35,4.41,6.72-.44.26-1.33,1.18-1.33,2.11,0,2.63,5.51,5.94,7.93,5.94.99,0,2.64-1.57,3.08-2.24ZM233.48,259.69c0-1.71-2.64-4.35-4.63-4.35-2.53,0-2.09,3.03-3.3,3.03-.22,0-1.44.67-1.44,1.99,0,0,6.38,3.55,7.16,3.55,1.54,0,2.2-1.98,2.2-4.23ZM233.81,240.56v-1.72c-1.1.27-.22,0-1.43,0-2.09,0-6.05.27-7.15,1.59,0,0,6.38,1.45,6.93,1.45,1,0,1.66-.65,1.66-1.32ZM222.25,235.95c-.33.14-1.1.66-1.1,1.32,0,1.58,3.86,1.06,7.71,0-.33-1.45,0-2.38,0-3.3,0-2.78-3.85.14-3.85-3.04-1.21,0-3.52-.92-3.86-1.98-1.1.14-2.53.67-2.53,1.98,0,2.64,2.31,3.43,3.63,5.02ZM216.74,222.75h1.88v-2.64c-.77,0-2.43-.14-3.86,0,0,1.58,1.33,1.84,1.99,2.64ZM230.72,220.12c-.98,0-2.75-.8-3.29-1.32h-1.65c.32,3.82,2.65,4.21,6.38,4.21-.66,1.06-1.44,1.19-2.53,1.72,0,.79.12,1.32.88,1.32.88,0,1.21-.53,2.31-1.05.33.78.44,1.71,1.54,1.71,1.32,0,1.65-1.06,3.3-1.06s2.86.53,4.52,1.06c-1.54.39-8.37.13-8.37,2.63,0,1.98,3.08,3.31,4.96,3.31-.33.4-.67.79-1.43.92.22,1.85,2.65,2.38,4.4,2.38,1.65,0,2.64-.66,2.64-3.03.99.79,2.97,2.51,3.97,2.37v-1.72h1.98c-.33-1.05-.77-1.31-1.43-2.63.56-.66.78-1.32,1.33-1.98.33,1.45.33,2.64,1.76,2.64s2.98-3.96,5.17-4.22c.88-.13,2.1.13,2.53-.66.33-.53.11-1.06.11-1.98-1.44-.14-4.3-1.72-5.4-1.72-.23,0-1.88,1.19-1.88,0,0-.79.77-1.06.77-1.97s-1.32-1.06-1.32-1.98c0-1.58.11-2.25-1.43-2.25h-1.1l.55.93v1.71h-1.32c-.99-1.19-.33-2.89-1.98-3.7-1.65-.78-2.75.53-4.41-.26-1.77-.79-1.32-4.62-3.52-5.67-1.99-.93-4.18-1.19-6.94-1.45.11,1.84,1.99,1.97,3.3,2.76h-1.87c-1.99-.53-2.86.26-4.19,1.19,0,.13,1,2.11,1.43,2.11.66,0,1.98-.79,3.08,0-.33.41-.55,1.32-1.21,1.32-.88,0-1.43-.91-2.98-.91-.98,0-2.52-.14-2.52,1.32s3.41,2.37,4.84,2.9c0,0-.55,1.06-.99,1.06ZM270.92,333.6c-.55-.53-.22-1.45-.77-2.37-1.98-3.18-5.51-1.85-7.82-5.28-.33.25-.66.53-.99,1.07-.56-1.32-1.1-1.72-1.66-3.7-3.08.39-3.64,5.67-3.64,7.92v1.98c0,.78-.54,1.19-1.09,1.72-.23.65-1.54.39-1.66,2.63.88-.12,2.97-.54,4.73,0-.22,1.32-.55,2.64.77,2.64.55,0,.55-.39.88-1.05,1.54.78,5.18-1.97,5.18-4.89.65.27,4.18,3.31,4.18,3.31h2.97c1.43,0,2.42-.54,3.64-1.44-.99-1.6-2.98-.93-4.74-2.51ZM291.85,311.83c0-4.36-6.82-5.28-6.82,0,0,1.57,1.1,2.9,2.75,2.9,1.32,0,4.08-1.19,4.08-2.9ZM267.07,341.12c-.11.78-1.55,1.97-2.43,3.29v1.71c1.77-.26,4.52-2.9,5.51-4.48-1.33-.66-.88-.66-3.08-.52ZM278.97,277.52c1.87,0,2.86-1.32,4.07-1.32s1.87.92,3.31.92c.99,0,1.66-.92,1.98-2.11-1.98-1.19-4.51-4.08-7.49-4.08-2.31,0-3.08-1.06-5.5-1.06-.89,0-1.88.66-1.88,1.98,0,1.45,1.22,2.11,2.21,2.77-.78,2.23,1.1,2.9,3.31,2.9ZM276.43,348.77c1.1,0,1.33-1.85,1.99-2.9-1.1-1.58-3.64-1.45-3.64.92,0,0,1.43,1.98,1.65,1.98ZM296.59,310.9c-.33-.51-1.21-2.11-2.2-2.11-.23,0-1.43.93-1.43,1.33,0,.78.66,1.05,1.43,1.05,1.09,0,.77.14,2.2-.27ZM281.17,301.13c-1.32,0-3.85,3.03-2.54,3.03s2.21-1.45,2.54-3.03ZM304.84,289c.33-2.25-2.42-2.65-3.62-2.65h-2.76c-3.64,0-4.4-4.49-6.83-6.59-1.43-1.2-6.17-1.98-8.26-1.98-1.98,0-2.53,3.29-4.4,3.29-.99,0-1.32-1.31-2.54-1.31-1.09,0-1.54,1.31-2.2,1.31-.55,0,0-2.11,0-2.63,0-2.91-1.54-7.52-4.4-7.52-4.41,0-11.79,1.58-11.79,6.6,0,1.31,1.1,2.25,1.1,3.56,0,1.06-1.54,2.64-2.2,2.64-1.33,0-1.1-1.19-1.1-2.24,0,0-.22-1.45,0-2.38-.55,0-.88-.53-.88-1.31,0-3.83,3.63-4.09,4.73-6.86-.11,0-3.63-1.32-3.63-1.32-3.74,0-6.6,2.25-8.81,4.88-.44.53.11,2.91-.77,3.7-1.65,1.44-2.2,2.25-2.2,5.93,0,1.19,1.65,3.57,1.65,3.57,0,0,5.06.53,6.06,1.32v1.71c-1.87-.26-3.53-1.06-4.96-.39.22,1.84,1.87,2.1,2.43,3.95h5.28c.66,1.06,2.42,2.65,3.3,2.65,4.96,0,13.33-.4,16.75,0-.11.91-.55,3.03.88,3.03,1.98,0,3.75-5.02,5.18-5.02,1.21,0,7.16,6.07,8.15,7.26-.66.13-2.65.39-2.65,1.71,0,.26.44,1.58.88,1.58,1.43,0,2.09-1.58,3.52-1.58,2.31,0,9.36,6.47,9.36,9.9,0,1.84-2.32,4.75-3.3,5.93-.77.92-2.75-.26-2.75,1.99,0,1.05,1.43,2.37,1.98,2.76-1.32,1.06-3.97,1.85-4.95,1.85h-4.74c-1.54,0-4.4,2.25-4.4,3.57,0,1.84,3.52,3.7,4.73,3.7,1.33,0,1.98-1.99,3.31-1.99.99,0,.76.92,1.87.92.98,0,1.65-1.06,2.2-1.98,3.19,2.24,4.96,4.76,8.59,6.61-1.87,4.22,4.74,4.09,7.38,5.93,2.75,1.98,4.84,1.19,8.04,3.03.33.14.55,1.59,1.1,1.59.44,0,1.1-.66,1.1-1.59,0-3.68-6.17-6.46-8.04-9.23h1.65c1.21,1.85,8.26,5,10.25,5.28.43-1.46,1.65-3.95,1.65-5.28,0-1.45-1.98-2.11-1.98-3.03q-.12-.52,0-2.64h-1.87c-.22-2.25-.99-.67-3.08-1.59-.89-.4-2.21-3.31-2.43-5.02h-1.43v-1.98c.44.4.99.26,1.65,0v-1.59c-.99.26-1.21.4-2.19-.26.1,0,1.54-1.45,2.19-1.45,5.29,0,5.51,8.97,11.01,8.97,1.21,0,1.43-2.24,1.43-3.7,2.09,0,2.43-1.18,2.43-1.58,0-.66.11-.26,0-1.72,1.43,0,3.3-.52,3.3-2.24,0-2.11-.88-3.04-2.98-3.04-.54,0-1.43,0-1.98-.65-.88-2.52-1.42-.66-3.85-.66-1.65,0-2.2-2.25-2.42-4.62-2.31-.27-5.28-1.58-5.51-4.62-1.43,0-2.09-.4-3.08-1.05.99-1.98,1.87-1.98,3.63-3.04-.32-.79-1.1-1.19-1.65-1.19-.99,0-1.43,0-3.3-.26.88-1.59,2.31-1.46,3.86-1.85-.67-1.85-1.55-3.17-3.08-3.17h-1.88v-2.24c-3.08-.4-4.74-2.51-7.71-3.69ZM281.39,338.75c1.1,1.05,1.43,1.05,2.54,0-1.33-.79-1.44-1.72-2.54,0ZM263,322.64c-.11.92.77,1.97,2.2,2.11-.77-1.18-.77-2.89-2.2-2.11ZM242.84,205.59h3.3c-1.32.54-1.98.93-3.08,2.24.21.14,1.43,1.05,1.98,1.05,2.09,0,2.21-2.37,4.41-2.37.87,0,1.21,0,2.2.27-2.86,1.04-5.62.66-6.83,4.08.89-.13,3.09,0,5.18,0-1.43.14-2.2.79-2.97,1.45.78,1.19,3.85,2.77,6.06,2.77.99,0,1.65-.66,2.42-1.32h1.43c-.66,1.71,2.2,2.64,4.41,2.64.88,0,1.31-1.32,2.2-1.32,1.1,0,1.76,1.06,3.86,1.06,3.52,0,6.06-.93,8.26-3.03h1.65c-1.32,1.97-3.2,2.63-5.28,3.69h-5.5c-.22.4-.78.79-.78,1.32,0,.79,3.52,3.43,4.08,4.09-3.09.4-4.08-3.42-6.83-4.48-2.2-.8-4.63-.26-5.84-.26-.55,0-1.1-.27-1.65,0,.22,1.05.44,1.58,1.65,1.58-1.1,0-2.75-.26-2.75,1.06,0,2.37,7.48,2.37,7.48,6.59,0,3.7-3.31,2.51-6.06,3.56-1.65.66-2.42,2.11-3.31,4.36v1.58h1.65q.45-.52,1.11-.92h1.65c0,3.16,3.41,4.75,4.96,6.59h-1.98c-2.09-1.45-3.31-3.69-6.83-3.69-1.11,0-2.76-.53-2.76,1.32,0,2.37,2.31,2.77,3.64,3.96-2.31,1.98-8.04,0-8.04,5.28,0,.39.33,1.05,1.1,1.05.55,0,.99-.67,1.33-1.32,3.85,1.46,6.83,2.63,10.45,2.63,1.66,0,2.32-1.31,3.3-1.31h8.27c2.21,0,1.1,1.98,3.63,1.98s8.81-2.38,8.81-4.62c0-1.18-1.32-1.06-1.65-1.06h-2.75c0-4.49,4.62-1.98,4.62-6.2,0-.79-.55-1.06-.78-1.98h5.51c1.87-1.58,2.64-4.75,4.96-6.06-.67-1.86-1.87-2.39-3.19-3.18,2.09.26,3.42.53,3.19-2.37h-3.09c1.77-1.72,4.52-1.99,6.95-2.91,1.76-.65,4.19.92,5.72-.4,3.3-2.89,5.84-8.17,10.24-9.89,3.97-1.59,10.13-3.43,12.67-6.47-2.76-.14-7.16.92-8.26-.41,5.83-3.41,11.24-1.05,15.64-5.01.77-.66,2.75-.26,2.75-1.97,0-2.38-5.84-1.72-7.15-3.31-.66-.78-.66-1.84-1.88-2.23-.77-.27-1.21-.53-1.98-1.06l-8.81,3.03c.88-.26,1.21-.53,1.98-1.45-2.2-2.64-11.68-2.25-14.32-2.25h-3.08c-1,0-1.65-.92-3.3-.92-1.54,0-1.98,2.25-3.53,2.25-1.65,0-2.19-1.58-4.18-1.58-.55,0-1.1.39-1.32.92h-12.66c-1.1,0-1.98.4-2.53,1.71-1.44,1.45-.33.26-2.21.26-3.19,0-4.52,2.78-5.5,5.94-.99-.4-5.29-2.9-7.38-2.9-2.31,0-.88,2.9-4.4,2.9,0,.53-.45,1.06-.88,1.06h-2.42c-3.2,0-10.36,1.57-11.02,4.88h2.42c.33-.27.98-.66,1.65-.93ZM457.93,295.06c-2.31-.92-12.12-.39-12.12-4.35.55-.13,2.43-.53,2.43-1.71,0-1.05-1.1-1.45-1.1-3.3.54.4,1.1,0,1.65,0,4.52,0,3.42,6.59,8.59,6.59,1.2,0,2.98-.13,2.98-1.58,0-7.53-7.05-9.77-11.02-14.51v-1.99c.22,0,.55.14,1.43,0,.66,2.5,4.07,5.94,6.07,5.94,1.31,0,1.65-2.12,1.65-3.7,0-3.57-4.95-2.38-6.06-5.94h1.65c.88,1.45,2.09,2.11,3.31,3.04.88-2.78,5.29-1.06,6.05-5.02-.55-.27-1.1-1.07-1.1-1.98,2.09-.27,4.3-1.44,4.96-3.55-1.32-.54-4.4-.41-4.4-2.64,0-1.73,1.76-1.73,3.53-1.73-.56-.78,0-1.84,0-2.89,0-1.98-1.65-2.77-1.65-5.67-1.55,0-3.53,0-3.53-2.25,0-.92.99-1.98,2.2-1.98,1.99,0,7.72,1.19,7.72-1.98s-4.3-2.51-4.74-4.61c.66,0,1.43-.41,1.98-.81-1.1-1.05-2.64-2.5-4.4-2.5-1.21,0-2.09.66-3.3,0,.66-1.32.55-4.48,1.87-5.68,2.09-1.84,4.4-2.77,4.4-5.54,0-.52.11-.52,0-1.97,2.09-.67,4.95-1.19,4.95-3.31,0-1.32.77.13,0-1.71,1.99-.53,4.96-.53,4.96-4.23-.88.79-.99.79-2.3,0,4.96,0,7.27-3.83,10.9-5.27.66-.27,2.76-1.45,2.76-3.05,0-1.71-5.18-4.61-6.61-4.61-1.1,0-1.87.13-2.2,1.71h-5.29c-1.77,1.06-2.09,1.72-4.08,2.64-.43.14-2.52-.39-2.52-.39h-7.38c-1.77,1.59-7.34,10.29-10.19,11.21.33-1.31,7.44-10.29,7.44-11.47,0-1.99-.77-3.96-2.75-3.96-3.64,0-10.2,7.52-12.95,7.52-.89,0,3.92-5.56,4.13-6.61-1.97-.91-20.44,1.72-22.31,0l24.18-1.57c2.98-1.33,10.46-.66,11.02-5.28-2.76-.79-6.61.13-9.59-1.31-5.17-2.64-10.02-7.66-16.51-7.66h-15.97c-5.61,0-9.91,3.7-15.2,3.7-1.66,0-2.75-.27-4.41,0v1.58h-2.2c-2.43-1.06-4.18-.92-6.82-.92-3.64,0-6.39.92-9.37,2.63.56.93,1.44,1.07,2.2,1.98-.99.26-4.4-.39-4.4,1.58,0,2.51,4.52,4.23,6.27,5.28h-4.96c-2.74-1.57-5.4-4.61-9.91-4.61-1.1,0-2.74.13-2.74,1.71,0,1.06.54,1.85.88,2.9h-1.65c-2.21-1.04-4.08-.79-5.29-3.29l-1.1,1.32c0,.92.55,1.71.55,2.64-2.09,0-2.65-3.96-4.63-3.96-2.98,0-5.17,2.1-8.26,3.03-4.19,0-5.84,1.31-10.24,1.97-3.53.53-.55,6.61-4.41,6.61-1.1,0-1.98-.27-2.86-1.06-2.2,2.63-7.16,5.8-10.9,7.25-.55.13-2.2.79-2.2,1.99,0,2.5,6.27,2.38,8.26,2.64,0,3.29-1.21,5.67-2.98,6.99-2.42,1.71-6.39-.27-9.36.92-2.09.79-3.31,2.25-5.29,3.04-2.41.93-6.28-.53-6.28,3.56,0,2.12,10.57,5.67,11.01,5.67h3.85c.56,0,.88-.66,1.11-1.31h4.4c-.33,1.45-.33,1.98-1.43,2.9h-6.28c-.55.92-.88,1.06-1.98,1.06h-2.76c-.88,0-3.09.79-3.31,2.63,2.1.93,1.43,0,3.86,0,1.32,0,2.65,1.46,4.41,2.24-.44,1.19-1.21,1.32-2.2,2.12,1.31,1.97,4.84,3.17,7.15,3.17.88,0,.77.4,1.43-.39-.32-.13-.76-.66-1.1-1.07.56-.26,1-.51,2.21-.51,1.32,0,2.32,1.05,3.3,1.05,1.43,0,2.09-1.73,3.52-1.73h3.3c12.34,0,20.04,11.49,23.13,22.84v1.97c1,.14,2.75.27,2.75,2.25,0,3.03-2.42,2.76-2.42,5.67,0,1.98.98,2.24,2.97,2.24,1.43,0,1.76-2.24,2.75-2.24,3.64,0,4.62,6.2,8.03,7.52-.1.81,0,1.99-1.09,1.99-2.65,0-4.3-1.99-6.61-1.99-.99,0-.88-.52-1.99,0,.44,3.71,8.48,4.36,11.9,5.68-.99,3.7-2.64,5.01-3.3,8.98-1.55-.79-1.55-.66-3.09.27v.27c-2.21,2.11-2.86,4.74-4.41,7.25v3.05c.66-.68,1.43-.54,2.2,0-.33,1.31-1.1,1.97-1.1,3.29,0,3.56,2.97,5.02,3.64,7.53.33,1.32.66,3.82,1.1,4.35,1.86,1.18,2.42-2.11,4.07.39-.77.92-1.65.79-1.65,2.5,0,3.83,4.19,9.77,6.39,11.89.33.26.11,2.11.77,2.63,1.77,1.58,2.87.66,3.64,3.69,1.32-.14,3.08-1.72,4.62-1.72,2.76,0,2.54,5.95,5.29,5.95.67,0,.88-.79,2.2-.93.22.8.55,1.33,1.33,1.33,2.97,0,1.65-6.87,4.18-8.32-.23-1.44,0-4.88,0-7.25,0-3.84,5.17-2.38,5.17-6.86,0-1.45-1.32-2.12-1.32-3.04,0-.66.44-1.07.77-1.59,0-.39-.21-.92-.21-1.32,0-4.36,5.94-3.17,8.26-5.94.99-1.19.55-2.52,2.21-3.31v2.64h1.65c2.31-1.97,6.05-1.32,8.25-3.96,1.65-1.97,1.77-4.61,3.86-6.59l2.76-2.39c0-1.05,1.1-1.44,2.2-2.23h5.17c4.18-2.12,7.38-1.72,11.35-3.3,3.19-1.19,4.29-4.89,7.93-6.34,1.99-.79,3.09-.92,4.74-2.5ZM357.71,300.88h2.43c1.87,0,4.18-.4,4.4-2.64-2.86-1.05-3.74-4.62-6.61-4.62-.99,0-2.42.66-2.42,2.64,0,1.58,1.2,4.49,2.2,4.62ZM353.09,404.06c0-.52-.33-1.31-.76-1.31-1.77,0-2.44,2.24-3.31,3.95-1.65,3.04-2.87,8.98-5.95,10.81.11.4.55.67.88.67v.79c0,.13-1.98,1.99-1.98,2.5,0,.4.55,1.33,1.1,1.33,1.32,0,1.77-.79,3.42-.79,1.21,0,1.87.92,3.3.92.77,0,1.43-.27,2.2-.65.56,1.31,1.99.52,3.09.52-.33.79-1.21.79-1.21,2.11,0,.26.44,0,.66,0,1.32,0,2.32-1.98,3.2-3.58.88,1.07.22,3.58,1.1,3.58.33,0,.55.26.88.26,0,.52.23,1.58,1,1.58,1.09,0,1.76-1.58,1.76-3.16,0-1.31-.77-1.19-.77-2.78-.66.52-.34.79-1.43.79,0-.92-.77-1.45-.77-2.11,0-.53.99-.79,1.11-1.99-.44,0-1,.14-1.21.4,0-1.98.11-3.17.11-4.35-.55.41-1.98.41-3.2,0l-1.32.53v-.65h-1.98v-1.2l.56-.64c-.44-.54-1.1-.67-1.76-.67-.77,0-.77.79-1.65,1.05v-1.18c.65-2.39,2.97-3.82,2.97-6.74ZM273.68,397.47c.1,0,.54.12.54,0,0-1.85-1.87-2.25-3.74-2.25.12.26.12.66,0,.92.66.8,2.21,1.33,3.2,1.33ZM130.62,414.36c1.76,1.32,5.61,4.88,8.15,4.88h.99v-1.19c-2.86-3.43-5.51-6.59-10.24-8.45-.78-.27-1.76-1.85-2.97-1.85-.54,0-1.1.4-1.54.65h.44s1.1.4,1.65.54c-.12.39-.56.93-1.1,1.18.43,1.59,3.52,2.91,5.72,2.91-.33.4-.88.4-1.1,1.32ZM114.1,396.42c0-.67-.55-.94-.55-1.59,0-1.32.23-2.12,0-2.91-.21.65-.65,1.7-1.43,1.7-.66,0,.66-1.44.66-1.58-.99-.13-1.54-.93-2.54-.93v1.06c.45.79.89,2.37,1.32,2.37.67,0,.89,1.46,1.77,1.72,0,.26-.44.67-.44,1.45,0,1.06.65,2.5,1.53,2.5,1.1,0-.88-1.98-.88-2.5s.55-.79.55-1.31ZM42.95,373.18v1.58c.78.66,1.33.79,2.31,1.73,1.65-1.6,2.32-2.52,4.3-3.71v-1.58h-1.32c-1.98,0-3.41,1.32-5.29,1.98ZM333.7,414.75c-2.31-1.58-4.4-4.08-7.82-3.15,1.32,1.18,4.52,3.95,6.28,3.95.88,0,1.21-.13,1.54-.79ZM326.87,425.84c-.22.14-.44.52-.44.92,0,.92,4.08,3.43,4.85,3.43.22,0,1.32-.67,1.32-1.45v-.8h-3.3c-1.1-.26-1.87-.79-2.43-2.1ZM339.54,430.2v-.92c-2.54,0-.88-.79-.88-1.98,0-.53-.55-.79-.77-1.32-1,.39-2.53,3.69-2.53,4.49s.66,1.44,1.76,1.44c1.2,0,2.42-.79,2.42-1.72ZM6.94,357.35c-.88,0-1.22-.26-1.66.92h-1.65c.22.52.87.93,1.32,1.32h3.64c-.23-1.32-.33-2.24-1.65-2.24Z" fill="url(#uuid-512641d7-6228-4536-a574-4bb87ead74e4)" opacity=".4" stroke-width="0"/>
    <g>
      <path d="M229.08,142.68s.68-.13,1.96-.35" fill="none" stroke="#f4f4f4" stroke-miterlimit="10" stroke-width="1.5"/>
      <path d="M234.98,141.69c24.7-3.75,122.24-14.74,201.93,29.86,116.78,65.37,151.89,123.03,159.37,137.74" fill="none" stroke="#f4f4f4" stroke-dasharray="0 0 3.99 3.99" stroke-miterlimit="10" stroke-width="1.5"/>
      <path d="M597.15,311.09c.57,1.2.81,1.82.81,1.82" fill="none" stroke="#f4f4f4" stroke-miterlimit="10" stroke-width="1.5"/>
    </g>
    <path d="M229.08,142.68s91.56-125.37,257.87-70.02c166.32,55.35,111.01,240.26,111.01,240.26" fill="none" stroke="#f4f4f4" stroke-dasharray="0 0 4 4" stroke-miterlimit="10" stroke-width="1.5"/>
    <path d="M562.58,86.53s79.52-41.31,162.83-10.28c83.31,31.03,100.2,92.04,100.2,92.04" fill="none" stroke="#f4f4f4" stroke-dasharray="0 0 4 4" stroke-miterlimit="10" stroke-width="1.5"/>
    <path d="M597.96,312.91s98.99-45.62,223.41,3.14c124.42,48.76,134.31,127.4,134.31,127.4" fill="none" stroke="#f4f4f4" stroke-dasharray="0 0 4 4" stroke-miterlimit="10" stroke-width="1.5"/>
    <path d="M825.6,168.29s117.34-23.64,168.95,96.05-40.19,176.83-40.19,176.83" fill="none" stroke="#f4f4f4" stroke-dasharray="0 0 4 4" stroke-miterlimit="10" stroke-width="1.5"/>
    <path d="M597.96,312.91s14.68-103.73,105.41-136.74c66.63-24.24,122.24-7.88,122.24-7.88" fill="none" stroke="#f4f4f4" stroke-dasharray="0 0 4 4" stroke-miterlimit="10" stroke-width="1.5"/>
    <path d="M372.04,359.4s-28.38-128.96,40.06-199.8c68.44-70.84,150.48-73.07,150.48-73.07" fill="none" stroke="#f4f4f4" stroke-dasharray="0 0 4 4" stroke-miterlimit="10" stroke-width="1.5"/>
    <path d="M371.44,356.65s16.1-40.28,106.39-59.87c90.29-19.6,123.41,19.28,123.41,19.28" fill="none" stroke="#f4f4f4" stroke-dasharray="0 0 4 4" stroke-miterlimit="10" stroke-width="1.5"/>
    <path d="M213.42,127.08c-14.09,0-25.51,11.42-25.51,25.51s25.51,39.54,25.51,39.54c0,0,25.51-25.45,25.51-39.54s-11.42-25.51-25.51-25.51ZM213.42,164.07c-5.64,0-10.2-4.57-10.2-10.21s4.56-10.2,10.2-10.2,10.2,4.57,10.2,10.2-4.56,10.21-10.2,10.21Z" fill="#f4f4f4" stroke-width="0"/>
    <path d="M360.3,356.36c-14.09,0-25.51,11.42-25.51,25.51s25.51,39.53,25.51,39.53c0,0,25.51-25.45,25.51-39.53s-11.42-25.51-25.51-25.51ZM360.3,393.34c-5.64,0-10.2-4.56-10.2-10.2s4.56-10.2,10.2-10.2,10.2,4.56,10.2,10.2-4.56,10.2-10.2,10.2Z" fill="#f4f4f4" stroke-width="0"/>
    <path d="M601.24,308.25c-14.09,0-25.51,11.42-25.51,25.51s25.51,39.53,25.51,39.53c0,0,25.51-25.45,25.51-39.53s-11.42-25.51-25.51-25.51ZM601.24,345.23c-5.64,0-10.2-4.56-10.2-10.2s4.56-10.2,10.2-10.2,10.2,4.56,10.2,10.2-4.56,10.2-10.2,10.2Z" fill="#f4f4f4" stroke-width="0"/>
    <path d="M954.35,438.67c-14.09,0-25.51,11.42-25.51,25.51s25.51,39.53,25.51,39.53c0,0,25.51-25.45,25.51-39.53s-11.42-25.51-25.51-25.51ZM954.35,475.65c-5.64,0-10.2-4.56-10.2-10.2s4.56-10.2,10.2-10.2,10.2,4.56,10.2,10.2-4.56,10.2-10.2,10.2Z" fill="#f4f4f4" stroke-width="0"/>
    <path d="M827.28,165.91c-14.09,0-25.51,11.42-25.51,25.51s25.51,39.54,25.51,39.54c0,0,25.51-25.45,25.51-39.54s-11.42-25.51-25.51-25.51ZM827.28,202.9c-5.64,0-10.2-4.57-10.2-10.21s4.56-10.2,10.2-10.2,10.2,4.57,10.2,10.2-4.56,10.21-10.2,10.21Z" fill="#f4f4f4" stroke-width="0"/>
    <path d="M573.3,82.06c-14.09,0-25.51,11.42-25.51,25.51s25.51,39.54,25.51,39.54c0,0,25.51-25.45,25.51-39.54s-11.42-25.51-25.51-25.51ZM573.3,119.05c-5.64,0-10.2-4.57-10.2-10.21s4.56-10.2,10.2-10.2,10.2,4.57,10.2,10.2-4.56,10.21-10.2,10.21Z" fill="#f4f4f4" stroke-width="0"/>
    <path d="M433.45,181.83c4.52,1.48,8.8,1.82,11.48.92.86-.3,1.48-.7,1.87-1.2.05-.05.18-.21.28-.42.11-.22.14-.4.15-.44.18-.65.12-1.39-.18-2.25-.91-2.66-3.78-5.86-7.7-8.55-3.17-2.18-7.23-4.05-12.84-6.64-.95-.44-1.96-.9-3.01-1.4l-.3-8.6h.03c.44.22.95.26,1.4.1.47-.15.86-.5,1.07-.93l.94-1.89c.22-.44.25-.95.1-1.41-.16-.47-.49-.85-.93-1.07l-2.82-1.4-.04-1.23c.39.14.82.14,1.19.01.47-.16.85-.49,1.07-.93l.94-1.9c.21-.43.25-.94.09-1.41-.16-.47-.49-.85-.93-1.05l-2.59-1.28-.31-8.75c0-.2-.04-.39-.11-.6-.2-.56-.59-1.02-1.09-1.27l-3.74-1.85c-.42-.21-.91-.24-1.31-.1-.6.2-1.04.71-1.15,1.34l-3.68,19.87c-.02.09-.11.39-.17.51l-3.15,6.38c-6.2-2.87-12.09-5.3-17.09-7.05-.46-.17-.92-.32-1.36-.47l-3.2-13.32c0-.06-.03-.14-.06-.23-.22-.59-.64-1.09-1.2-1.38l-1.74-.86c-.43-.21-.91-.25-1.32-.11-.63.2-1.08.78-1.14,1.43l-1.24,10.55c-.01.09-.09.34-.13.43l-.49,1.01c-.74-.01-1.36.06-1.87.23-.68.23-1.18.65-1.46,1.2l-.02.04h0c-.27.58-.29,1.21-.06,1.89.18.49.49,1.02.95,1.61l-.51,1.02c-.04.08-.19.29-.26.36l-7.61,7.38c-.49.46-.68,1.15-.47,1.77h0c.14.44.46.79.88,1l1.79.88c.55.25,1.2.29,1.81.09.07-.02.13-.05.16-.06l12.58-5.57c.38.27.78.53,1.19.8,4.44,2.91,9.95,6.11,15.98,9.29l-3.15,6.38c-.05.1-.22.36-.31.44l-13.53,14.96c-.44.47-.59,1.13-.38,1.73.15.43.46.79.88.99l3.76,1.86c.51.24,1.09.27,1.66.08.19-.06.37-.15.52-.26l7.15-5.07,2.59,1.28c.43.22.95.25,1.41.1.47-.16.84-.49,1.06-.93l.94-1.9c.21-.44.25-.95.09-1.41-.13-.39-.39-.73-.73-.95l1-.71,2.82,1.4c.44.21.95.25,1.41.09.47-.16.84-.49,1.06-.92l.94-1.89c.22-.44.25-.96.09-1.42-.16-.47-.5-.86-.93-1.06h-.02s7.02-4.99,7.02-4.99c1.04.55,2.04,1.07,2.98,1.56,5.45,2.88,9.39,4.96,13.03,6.15h0ZM433.45,181.83" fill="#f4f4f4" stroke-width="0"/>
    <path d="M364.13,55.46c-4.62,1.12-8.44,3.09-10.25,5.26-.58.71-.89,1.38-.96,2.01-.01.07-.04.27-.02.51.03.25.09.42.1.45.19.65.63,1.24,1.34,1.82,2.17,1.79,6.3,2.99,11.05,3.22,3.84.18,8.28-.36,14.41-1.11,1.05-.12,2.14-.26,3.3-.39l4.78,7.15h-.03c-.48.05-.94.3-1.23.66-.32.37-.47.87-.42,1.35l.2,2.1c.05.49.29.94.66,1.25.38.32.86.47,1.36.42l3.14-.3.68,1.02c-.4.09-.77.31-1.02.62-.32.38-.47.87-.42,1.36l.2,2.11c.04.48.29.93.67,1.25.38.32.86.46,1.35.41l2.88-.28,4.87,7.28c.11.17.24.31.41.45.46.38,1.03.55,1.6.5l4.15-.4c.47-.04.9-.27,1.17-.6.41-.49.51-1.16.27-1.75l-7.33-18.83c-.03-.09-.11-.39-.12-.52l-.68-7.08c6.78-.82,13.07-1.86,18.24-3,.48-.1.95-.21,1.4-.32l9.73,9.64s.09.1.17.16c.49.38,1.12.59,1.75.54l1.93-.19c.47-.04.91-.27,1.18-.6.43-.5.51-1.23.21-1.82l-4.5-9.63c-.04-.08-.1-.34-.11-.44l-.11-1.12c.64-.38,1.12-.77,1.47-1.18.46-.55.67-1.17.61-1.79v-.04s-.01-.01-.01-.01c-.07-.62-.38-1.17-.94-1.63-.41-.33-.95-.61-1.65-.87l-.11-1.14c0-.09.01-.35.03-.44l2.59-10.28c.18-.65-.03-1.34-.54-1.75h-.01c-.35-.3-.8-.43-1.26-.38l-1.99.19c-.6.07-1.18.38-1.59.87-.05.06-.09.11-.1.13l-7.76,11.35c-.47-.02-.94-.04-1.44-.06-5.3-.14-11.67.04-18.48.51l-.68-7.08c-.01-.11,0-.43.03-.54l3.62-19.84c.13-.63-.09-1.27-.59-1.67-.35-.29-.8-.43-1.28-.38l-4.18.39c-.56.07-1.07.35-1.45.81-.13.15-.23.33-.31.5l-3.41,8.07-2.88.27c-.48.04-.94.29-1.25.66-.31.38-.46.86-.42,1.35l.2,2.11c.05.48.29.94.66,1.24.32.26.72.41,1.12.43l-.48,1.13-3.14.3c-.48.05-.94.29-1.25.67-.31.38-.46.86-.41,1.34l.2,2.1c.05.49.29.94.67,1.26.38.31.87.47,1.35.41h.02s-3.34,7.93-3.34,7.93c-1.18.08-2.29.17-3.35.24-6.15.42-10.6.73-14.31,1.63h0ZM364.13,55.46" fill="#f4f4f4" stroke-width="0"/>
    <path d="M445.48,297.46c-4.48,1.57-8.09,3.91-9.68,6.25-.5.76-.75,1.46-.76,2.09,0,.07-.02.27.03.51.05.24.13.41.15.44.26.62.75,1.17,1.51,1.68,2.34,1.56,6.57,2.36,11.31,2.11,3.84-.2,8.2-1.18,14.23-2.53,1.03-.23,2.1-.47,3.24-.72l5.47,6.64h-.03c-.48.11-.91.39-1.16.79-.28.4-.38.91-.28,1.39l.4,2.07c.1.48.38.91.79,1.18.41.27.91.38,1.39.28l3.09-.61.78.95c-.39.13-.73.38-.95.71-.28.41-.38.91-.28,1.39l.4,2.08c.09.47.38.9.79,1.17.41.28.9.38,1.38.27l2.84-.56,5.57,6.76c.13.15.27.29.45.41.5.33,1.08.45,1.64.34l4.09-.81c.46-.09.87-.36,1.11-.72.36-.52.39-1.2.1-1.76l-9.16-18.01c-.04-.08-.15-.38-.18-.51l-1.37-6.98c6.67-1.49,12.82-3.14,17.86-4.79.47-.15.92-.3,1.37-.46l10.64,8.63s.1.09.19.15c.53.33,1.17.47,1.79.36l1.91-.38c.47-.09.88-.36,1.11-.72.38-.55.38-1.28.03-1.83l-5.43-9.14c-.05-.08-.13-.33-.15-.42l-.22-1.1c.6-.44,1.04-.88,1.34-1.32.4-.6.55-1.23.43-1.85v-.04s-.02-.01-.02-.01c-.13-.61-.49-1.13-1.09-1.53-.44-.28-1.01-.52-1.73-.7l-.22-1.12c-.02-.09-.02-.35-.01-.44l1.56-10.48c.11-.67-.17-1.33-.71-1.69h-.01c-.37-.26-.84-.34-1.29-.26l-1.96.39c-.59.13-1.13.5-1.5,1.03-.04.06-.08.12-.09.14l-6.6,12.06c-.47.02-.94.06-1.43.09-5.29.38-11.61,1.19-18.33,2.33l-1.38-6.98c-.02-.11-.04-.42-.03-.54l1.64-20.1c.06-.64-.22-1.25-.75-1.61-.38-.25-.84-.35-1.31-.25l-4.12.81c-.55.12-1.03.45-1.37.95-.11.17-.2.35-.25.52l-2.59,8.37-2.83.56c-.48.09-.91.38-1.18.78-.27.41-.37.9-.28,1.38l.41,2.08c.1.48.38.9.78,1.17.35.23.76.34,1.16.31l-.37,1.17-3.09.61c-.48.1-.9.38-1.18.79-.27.41-.37.9-.28,1.38l.4,2.07c.1.48.38.91.79,1.18.41.27.91.38,1.39.28h.02l-2.54,8.22c-1.16.2-2.26.39-3.31.57-6.08,1.03-10.47,1.77-14.08,3.04h0ZM445.48,297.46" fill="#f4f4f4" stroke-width="0"/>
    <path d="M783.46,293.5c-4.63-1.05-8.93-.99-11.52.15-.83.38-1.41.84-1.75,1.37-.04.06-.16.22-.24.45-.09.23-.1.42-.11.45-.11.66.01,1.39.39,2.23,1.15,2.57,4.31,5.49,8.46,7.8,3.36,1.88,7.57,3.36,13.4,5.42.99.35,2.03.72,3.13,1.12l1.1,8.53h-.03c-.46-.18-.97-.16-1.4.03-.45.19-.81.57-.98,1.03l-.76,1.97c-.18.46-.16.97.04,1.42.2.45.57.8,1.03.98l2.94,1.13.16,1.22c-.4-.1-.82-.06-1.19.1-.45.2-.8.57-.98,1.03l-.76,1.98c-.17.45-.16.96.05,1.41.2.45.56.8,1.02.96l2.7,1.03,1.12,8.68c.02.2.08.39.16.58.25.54.68.96,1.21,1.16l3.9,1.49c.44.17.93.16,1.32-.02.58-.25.98-.81,1.02-1.44l1.82-20.12c0-.1.07-.4.12-.52l2.55-6.64c6.44,2.28,12.53,4.16,17.67,5.43.48.12.94.23,1.4.34l4.42,12.97c.01.06.04.13.08.22.27.56.74,1.02,1.33,1.26l1.81.7c.44.17.93.16,1.33-.02.61-.26,1-.88,1-1.53l.26-10.62c0-.09.06-.35.09-.44l.4-1.05c.74-.06,1.35-.19,1.84-.4.66-.29,1.12-.75,1.35-1.33v-.04s.01-.02.01-.02c.22-.59.18-1.22-.11-1.88-.22-.48-.58-.97-1.09-1.52l.41-1.07c.03-.08.17-.31.22-.38l6.89-8.05c.45-.5.56-1.21.3-1.81h0c-.18-.42-.53-.74-.96-.91l-1.86-.71c-.57-.2-1.22-.18-1.81.07-.07.03-.13.06-.15.07l-12,6.71c-.41-.23-.83-.45-1.26-.69-4.69-2.49-10.47-5.16-16.77-7.77l2.55-6.65c.04-.1.19-.38.27-.47l12.08-16.15c.39-.5.48-1.18.22-1.76-.18-.42-.53-.75-.97-.91l-3.92-1.51c-.53-.19-1.11-.16-1.66.08-.18.08-.35.19-.49.31l-6.64,5.71-2.7-1.03c-.45-.18-.97-.16-1.41.04-.45.2-.79.56-.97,1.02l-.76,1.98c-.17.45-.16.97.04,1.41.17.38.46.69.82.88l-.94.79-2.94-1.13c-.45-.17-.96-.16-1.41.04-.45.2-.79.56-.97,1.02l-.76,1.97c-.18.46-.16.98.04,1.42.2.45.58.81,1.03.97h.02s-6.53,5.62-6.53,5.62c-1.09-.45-2.13-.87-3.11-1.28-5.7-2.36-9.81-4.07-13.55-4.91h0ZM783.46,293.5" fill="#f4f4f4" stroke-width="0"/>
    <path d="M729.77,86.81c4.73.44,8.99-.17,11.4-1.64.77-.48,1.29-1.01,1.56-1.58.04-.06.13-.24.18-.48.06-.24.05-.43.05-.46.02-.67-.19-1.38-.67-2.16-1.47-2.39-4.98-4.88-9.4-6.64-3.57-1.42-7.94-2.35-13.99-3.64-1.03-.22-2.11-.45-3.25-.7l-2.2-8.32h.03c.48.12.98.03,1.38-.21.42-.25.73-.67.84-1.14l.5-2.05c.12-.48.04-.98-.22-1.4-.26-.42-.67-.72-1.15-.83l-3.06-.74-.31-1.19c.41.05.83-.04,1.16-.25.42-.26.72-.67.84-1.15l.5-2.06c.11-.47.03-.97-.23-1.4-.26-.42-.66-.72-1.14-.82l-2.81-.68-2.23-8.46c-.05-.19-.13-.38-.24-.56-.31-.51-.8-.86-1.35-1l-4.06-.97c-.46-.11-.94-.03-1.3.19-.54.33-.86.93-.83,1.56l.8,20.19c0,.09-.02.41-.05.53l-1.66,6.92c-6.68-1.43-12.96-2.5-18.23-3.1-.49-.06-.96-.11-1.43-.15l-6.06-12.29c-.02-.06-.06-.13-.11-.21-.34-.52-.87-.92-1.48-1.08l-1.89-.46c-.46-.11-.95-.04-1.31.19-.57.34-.88,1-.8,1.65l1.12,10.57c0,.09-.01.35-.03.45l-.26,1.09c-.72.15-1.31.36-1.77.63-.61.38-1.01.89-1.17,1.5v.04s0,.02,0,.02c-.14.61-.02,1.23.36,1.85.28.44.7.89,1.28,1.36l-.27,1.11c-.02.09-.13.33-.17.4l-5.79,8.88c-.38.56-.4,1.28-.06,1.83h0c.24.4.62.67,1.07.78l1.94.46c.59.13,1.24.02,1.79-.31.06-.04.12-.07.14-.09l11.03-8.21c.43.17.88.34,1.34.52,4.97,1.86,11.05,3.76,17.64,5.53l-1.66,6.92c-.03.11-.14.4-.2.5l-9.88,17.58c-.32.55-.32,1.23.01,1.77.23.39.62.67,1.08.77l4.08.99c.55.12,1.12.02,1.64-.29.17-.1.33-.23.45-.37l5.85-6.52,2.81.68c.47.12.98.03,1.4-.22.42-.26.71-.66.83-1.14l.5-2.06c.11-.47.03-.98-.22-1.39-.22-.36-.54-.63-.93-.77l.82-.91,3.06.74c.47.11.98.03,1.4-.23.42-.26.71-.66.83-1.14l.5-2.05c.11-.48.03-.99-.22-1.41-.26-.42-.68-.72-1.14-.83h-.02s5.74-6.42,5.74-6.42c1.14.3,2.22.59,3.25.87,5.96,1.6,10.26,2.76,14.07,3.11h0ZM729.77,86.81" fill="#f4f4f4" stroke-width="0"/>
    <path d="M995.58,297.4c2.34,4.13,5.29,7.27,7.87,8.41.84.36,1.57.48,2.19.37.07,0,.27-.03.5-.12.23-.09.38-.2.41-.23.56-.37,1.02-.95,1.39-1.79,1.12-2.58,1.15-6.88.07-11.5-.87-3.74-2.61-7.86-5.02-13.56-.41-.97-.84-1.99-1.28-3.06l5.57-6.56v.03c.19.45.55.82.98,1.01.45.2.97.21,1.42.03l1.96-.76c.46-.18.83-.53,1.02-.98.2-.46.21-.96.03-1.42l-1.15-2.93.8-.94c.2.36.51.65.87.81.46.2.96.21,1.42.03l1.97-.77c.45-.17.82-.53,1.01-.99.2-.46.21-.95.02-1.4l-1.06-2.69,5.66-6.68c.13-.15.24-.32.32-.51.23-.55.25-1.15.05-1.68l-1.52-3.88c-.17-.44-.51-.79-.9-.96-.58-.26-1.26-.18-1.76.22l-16.1,12.21c-.07.06-.34.22-.46.26l-6.62,2.59c-2.65-6.29-5.37-12.06-7.89-16.72-.23-.43-.46-.85-.69-1.26l6.61-12.01c.04-.05.07-.12.11-.21.23-.58.26-1.24.04-1.83l-.71-1.81c-.18-.44-.51-.8-.91-.97-.6-.28-1.32-.15-1.81.29l-8.02,6.97c-.07.06-.3.19-.39.23l-1.04.41c-.54-.51-1.05-.87-1.53-1.09-.66-.29-1.31-.32-1.89-.1l-.04.02h-.01c-.58.24-1.02.69-1.31,1.36-.2.49-.33,1.08-.38,1.83l-1.07.42c-.08.03-.34.09-.43.09l-10.59.33c-.67,0-1.28.4-1.54.99h0c-.18.43-.18.9-.02,1.33l.73,1.86c.24.56.69,1.03,1.28,1.29.07.03.13.06.16.06l13.04,4.35c.11.46.23.92.34,1.4,1.32,5.14,3.24,11.21,5.56,17.63l-6.63,2.59c-.11.04-.41.12-.53.12l-20.07,1.95c-.64.05-1.19.44-1.45,1.03-.19.42-.2.89-.02,1.33l1.52,3.91c.22.51.63.93,1.18,1.17.18.08.38.14.56.16l8.7,1.06,1.05,2.69c.17.45.53.83.98,1.02.45.2.95.21,1.41.03l1.98-.77c.45-.18.82-.53,1.01-.98.17-.38.2-.81.1-1.2l1.22.16,1.15,2.94c.18.45.54.82.98,1.02.45.2.95.21,1.41.03l1.97-.77c.46-.18.83-.54,1.03-.99.2-.45.21-.97.03-1.41v-.02s8.54,1.04,8.54,1.04c.4,1.11.79,2.16,1.15,3.16,2.09,5.8,3.61,9.99,5.5,13.32h0ZM995.58,297.4" fill="#f4f4f4" stroke-width="0"/>
  </g>
</svg>