<?xml version="1.0" encoding="UTF-8"?>
<svg id="Layer_1" data-name="Layer 1" xmlns="http://www.w3.org/2000/svg" viewBox="0 0 1125 656.5">
  <defs>
    <style>
      .cls-1 {
        stroke-dasharray: 0 0 3.98 3.98;
      }

      .cls-1, .cls-2, .cls-3 {
        fill: none;
        stroke: #f4f4f4;
        stroke-miterlimit: 10;
        stroke-width: 1.5px;
      }

      .cls-2 {
        stroke-dasharray: 0 0 4 4;
      }

      .cls-4 {
        fill: #f4f4f4;
        stroke-width: 0px;
      }
    </style>
  </defs>
  <g>
    <path class="cls-3" d="M61.78,172.59s.67-.13,1.96-.36"/>
    <path class="cls-1" d="M67.67,171.58c29.3-4.63,162.38-21.18,270.69,39.44,158.75,88.86,204.09,167.02,212.68,184.49"/>
    <path class="cls-3" d="M551.89,397.31c.55,1.2.8,1.83.8,1.83"/>
  </g>
  <path class="cls-2" d="M61.78,172.59S183.62,5.74,404.96,79.4c221.33,73.66,147.73,319.73,147.73,319.73"/>
  <path class="cls-2" d="M505.61,97.86s105.82-54.98,216.69-13.68c110.86,41.3,133.34,122.49,133.34,122.49"/>
  <path class="cls-2" d="M552.69,399.13s131.74-60.71,297.31,4.19c165.58,64.89,178.74,169.55,178.74,169.55"/>
  <path class="cls-2" d="M855.64,206.67s156.16-31.46,224.83,127.82c68.67,159.28-53.49,235.32-53.49,235.32"/>
  <path class="cls-2" d="M552.69,399.13s19.53-138.04,140.28-181.97c88.66-32.26,162.67-10.49,162.67-10.49"/>
  <path class="cls-2" d="M252.04,461s-37.77-171.62,53.31-265.9c91.09-94.28,200.25-97.25,200.25-97.25"/>
  <path class="cls-2" d="M251.24,457.34s21.43-53.6,141.58-79.68c120.15-26.08,164.24,25.66,164.24,25.66"/>
  <path class="cls-4" d="M40.95,151.83c-18.75,0-33.95,15.19-33.95,33.95s33.95,52.61,33.95,52.61c0,0,33.95-33.87,33.95-52.61s-15.2-33.95-33.95-33.95ZM40.95,201.05c-7.5,0-13.58-6.08-13.58-13.59s6.07-13.58,13.58-13.58,13.58,6.08,13.58,13.58-6.07,13.59-13.58,13.59Z"/>
  <path class="cls-4" d="M236.41,456.95c-18.75,0-33.95,15.2-33.95,33.95s33.95,52.61,33.95,52.61c0,0,33.95-33.87,33.95-52.61s-15.2-33.95-33.95-33.95ZM236.41,506.17c-7.5,0-13.58-6.07-13.58-13.57s6.07-13.58,13.58-13.58,13.57,6.07,13.57,13.58-6.07,13.57-13.57,13.57Z"/>
  <path class="cls-4" d="M557.06,392.93c-18.75,0-33.95,15.2-33.95,33.95s33.95,52.61,33.95,52.61c0,0,33.95-33.87,33.95-52.61s-15.2-33.95-33.95-33.95ZM557.06,442.14c-7.5,0-13.58-6.07-13.58-13.58s6.07-13.58,13.58-13.58,13.57,6.07,13.57,13.58-6.07,13.58-13.57,13.58Z"/>
  <path class="cls-4" d="M1026.98,566.49c-18.75,0-33.95,15.2-33.95,33.95s33.95,52.61,33.95,52.61c0,0,33.95-33.87,33.95-52.61s-15.2-33.95-33.95-33.95ZM1026.98,615.71c-7.5,0-13.58-6.07-13.58-13.58s6.07-13.58,13.58-13.58,13.57,6.07,13.57,13.58-6.07,13.58-13.57,13.58Z"/>
  <path class="cls-4" d="M857.87,203.51c-18.75,0-33.95,15.2-33.95,33.95s33.95,52.61,33.95,52.61c0,0,33.95-33.87,33.95-52.61s-15.2-33.95-33.95-33.95ZM857.87,252.73c-7.5,0-13.58-6.08-13.58-13.59s6.07-13.58,13.58-13.58,13.57,6.08,13.57,13.58-6.07,13.59-13.57,13.59Z"/>
  <path class="cls-4" d="M519.87,91.91c-18.75,0-33.95,15.2-33.95,33.95s33.95,52.61,33.95,52.61c0,0,33.95-33.87,33.95-52.61s-15.2-33.95-33.95-33.95ZM519.87,141.14c-7.5,0-13.58-6.08-13.58-13.58s6.07-13.58,13.58-13.58,13.57,6.08,13.57,13.58-6.07,13.58-13.57,13.58Z"/>
  <path class="cls-4" d="M333.76,224.69c6.01,1.97,11.72,2.42,15.28,1.23,1.15-.4,1.97-.93,2.49-1.6.06-.07.24-.28.38-.56.14-.3.19-.54.2-.59.23-.87.15-1.84-.24-3-1.21-3.54-5.03-7.8-10.24-11.38-4.22-2.9-9.62-5.39-17.08-8.84-1.27-.59-2.6-1.2-4.01-1.86l-.4-11.44.04.02c.58.28,1.27.33,1.86.12.62-.2,1.14-.66,1.42-1.24l1.25-2.51c.29-.58.34-1.26.13-1.88-.21-.63-.65-1.13-1.24-1.42l-3.76-1.86-.06-1.63c.52.18,1.08.19,1.59.02.63-.21,1.13-.65,1.42-1.24l1.25-2.52c.28-.57.33-1.26.12-1.88-.21-.63-.65-1.13-1.24-1.4l-3.45-1.7-.41-11.64c0-.26-.06-.52-.15-.79-.26-.75-.78-1.35-1.46-1.69l-4.98-2.46c-.56-.28-1.21-.32-1.75-.14-.8.26-1.39.95-1.53,1.78l-4.9,26.44c-.02.12-.15.52-.22.68l-4.19,8.48c-8.25-3.82-16.09-7.05-22.74-9.39-.62-.22-1.22-.42-1.81-.62l-4.25-17.73c-.01-.09-.04-.18-.08-.3-.29-.78-.86-1.45-1.6-1.84l-2.32-1.15c-.57-.29-1.22-.33-1.76-.14-.84.27-1.44,1.04-1.52,1.91l-1.66,14.05c-.02.12-.12.46-.18.57l-.66,1.34c-.99-.02-1.81.09-2.48.3-.9.31-1.57.86-1.95,1.6l-.02.06v.02c-.36.75-.4,1.59-.09,2.5.24.66.65,1.36,1.26,2.14l-.67,1.36c-.05.11-.26.39-.34.47l-10.13,9.82c-.65.61-.9,1.54-.62,2.36v.02c.2.57.61,1.03,1.17,1.31l2.38,1.17c.73.34,1.6.39,2.41.13.09-.03.17-.06.21-.08l16.74-7.41c.51.35,1.04.7,1.59,1.07,5.9,3.88,13.24,8.13,21.26,12.37l-4.2,8.49c-.07.14-.3.48-.41.59l-18,19.91c-.58.62-.78,1.5-.51,2.3.19.57.61,1.05,1.18,1.32l5.01,2.48c.68.31,1.45.35,2.21.1.25-.09.49-.21.69-.35l9.51-6.74,3.45,1.71c.58.29,1.27.33,1.88.13.62-.21,1.12-.65,1.42-1.23l1.25-2.53c.28-.58.33-1.26.12-1.87-.18-.52-.52-.97-.97-1.27l1.34-.94,3.76,1.86c.58.28,1.26.33,1.88.12.62-.21,1.12-.65,1.41-1.23l1.25-2.51c.29-.58.33-1.27.12-1.89-.21-.62-.66-1.14-1.24-1.41l-.02-.02,9.34-6.63c1.39.73,2.71,1.42,3.96,2.08,7.26,3.83,12.5,6.6,17.34,8.18h0ZM333.76,224.69"/>
  <path class="cls-4" d="M241.52,56.52c-6.14,1.49-11.23,4.11-13.64,7-.77.94-1.19,1.83-1.28,2.67-.02.09-.06.36-.02.68.04.33.12.56.14.6.26.86.84,1.65,1.78,2.43,2.89,2.38,8.39,3.98,14.7,4.29,5.11.24,11.01-.48,19.18-1.48,1.39-.17,2.85-.35,4.39-.52l6.37,9.52h-.04c-.65.07-1.25.4-1.64.88-.42.5-.62,1.16-.56,1.8l.26,2.79c.06.65.38,1.25.88,1.67.51.42,1.15.62,1.81.55l4.18-.4.91,1.36c-.54.12-1.02.41-1.36.82-.42.51-.62,1.15-.55,1.81l.26,2.81c.06.64.38,1.24.89,1.66.51.42,1.14.61,1.79.54l3.83-.37,6.48,9.68c.15.22.32.42.54.6.62.5,1.38.74,2.13.67l5.53-.53c.63-.06,1.2-.36,1.56-.8.54-.65.68-1.54.36-2.32l-9.75-25.06c-.04-.12-.15-.52-.17-.69l-.9-9.42c9.02-1.1,17.39-2.48,24.28-4,.64-.14,1.26-.28,1.87-.43l12.95,12.84c.05.07.13.14.23.22.66.51,1.49.78,2.33.72l2.57-.25c.63-.06,1.21-.36,1.57-.8.57-.67.68-1.64.29-2.42l-5.99-12.81c-.05-.11-.14-.45-.15-.58l-.15-1.49c.85-.51,1.5-1.03,1.95-1.57.61-.74.89-1.56.81-2.39v-.06s-.02-.02-.02-.02c-.09-.83-.5-1.56-1.24-2.17-.55-.43-1.27-.82-2.2-1.16l-.14-1.51c-.01-.12.01-.47.04-.58l3.44-13.68c.23-.87-.05-1.78-.71-2.33h-.01c-.46-.39-1.06-.57-1.68-.51l-2.64.26c-.8.1-1.57.51-2.12,1.16-.06.08-.12.14-.14.18l-10.33,15.11c-.62-.03-1.25-.05-1.91-.07-7.06-.19-15.54.05-24.59.68l-.9-9.43c-.01-.15,0-.57.04-.72l4.82-26.4c.17-.84-.12-1.69-.78-2.23-.47-.39-1.07-.57-1.7-.5l-5.56.52c-.74.09-1.42.46-1.93,1.08-.17.21-.31.43-.41.66l-4.53,10.74-3.83.36c-.65.06-1.25.38-1.66.88-.42.51-.61,1.14-.55,1.79l.27,2.81c.07.64.38,1.24.88,1.66.43.35.96.55,1.49.57l-.64,1.5-4.17.4c-.64.07-1.25.39-1.66.89-.42.51-.61,1.14-.55,1.79l.26,2.8c.06.65.39,1.26.89,1.67.5.42,1.16.62,1.8.55h.03s-4.45,10.56-4.45,10.56c-1.57.11-3.05.22-4.46.32-8.19.56-14.1.97-19.05,2.17h0ZM241.52,56.52"/>
  <path class="cls-4" d="M349.77,378.57c-5.96,2.09-10.77,5.2-12.88,8.31-.67,1.01-1,1.94-1.01,2.78,0,.09-.02.36.04.68.07.33.17.54.2.59.34.83,1,1.56,2.01,2.24,3.11,2.08,8.74,3.14,15.05,2.81,5.11-.26,10.91-1.57,18.94-3.37,1.37-.3,2.8-.63,4.31-.95l7.27,8.84h-.04c-.63.14-1.21.52-1.55,1.04-.37.54-.5,1.22-.38,1.85l.53,2.75c.13.64.5,1.21,1.04,1.57.55.37,1.21.5,1.85.37l4.11-.81,1.04,1.27c-.52.17-.97.51-1.27.95-.37.55-.5,1.21-.37,1.85l.54,2.77c.12.63.5,1.2,1.05,1.56.55.37,1.2.5,1.84.36l3.77-.74,7.41,9c.17.2.36.38.6.54.66.44,1.44.6,2.19.46l5.45-1.07c.62-.12,1.16-.48,1.47-.95.48-.7.53-1.6.13-2.35l-12.18-23.97c-.06-.11-.2-.51-.23-.67l-1.83-9.29c8.87-1.98,17.06-4.18,23.76-6.38.63-.2,1.23-.4,1.82-.61l14.16,11.49c.06.06.14.12.25.19.7.44,1.56.63,2.39.48l2.54-.5c.62-.12,1.17-.47,1.48-.96.5-.73.51-1.7.05-2.44l-7.23-12.16c-.06-.11-.18-.43-.2-.56l-.29-1.46c.79-.59,1.39-1.17,1.79-1.75.53-.79.73-1.64.57-2.46l-.02-.06v-.02c-.18-.81-.66-1.5-1.46-2.04-.59-.38-1.34-.69-2.3-.94l-.29-1.49c-.02-.12-.03-.47-.02-.59l2.08-13.95c.15-.89-.22-1.77-.94-2.25h-.02c-.5-.34-1.11-.46-1.72-.34l-2.6.52c-.78.18-1.51.66-1.99,1.37-.06.08-.1.15-.12.19l-8.79,16.06c-.62.03-1.25.07-1.91.12-7.04.51-15.45,1.59-24.4,3.11l-1.83-9.29c-.03-.15-.05-.56-.03-.72l2.19-26.75c.09-.85-.29-1.67-1-2.14-.5-.34-1.12-.47-1.74-.33l-5.48,1.07c-.73.16-1.37.6-1.82,1.26-.15.22-.26.46-.34.7l-3.45,11.14-3.77.74c-.64.12-1.21.51-1.57,1.04-.36.54-.5,1.19-.37,1.84l.55,2.77c.13.63.51,1.2,1.04,1.56.46.31,1.01.46,1.54.42l-.49,1.56-4.11.81c-.63.13-1.2.51-1.56,1.05-.36.54-.5,1.19-.37,1.83l.54,2.76c.13.64.51,1.21,1.05,1.58.54.36,1.22.5,1.84.37h.03l-3.38,10.94c-1.55.27-3.01.52-4.41.76-8.09,1.37-13.93,2.36-18.74,4.05h0ZM349.77,378.57"/>
  <path class="cls-4" d="M799.56,373.3c-6.16-1.4-11.89-1.32-15.33.2-1.1.5-1.87,1.11-2.33,1.82-.06.08-.21.3-.33.6-.11.31-.14.55-.14.6-.15.88.02,1.85.51,2.97,1.53,3.41,5.73,7.3,11.25,10.38,4.47,2.5,10.07,4.48,17.83,7.22,1.32.47,2.7.96,4.16,1.48l1.46,11.35h-.04c-.61-.24-1.29-.22-1.86.04-.6.26-1.08.76-1.3,1.36l-1.01,2.62c-.23.61-.22,1.29.05,1.89.27.6.75,1.07,1.37,1.3l3.91,1.5.21,1.63c-.53-.13-1.1-.09-1.58.13-.6.27-1.07.76-1.3,1.37l-1.01,2.63c-.23.59-.21,1.28.06,1.88.27.6.75,1.06,1.36,1.28l3.59,1.38,1.49,11.56c.03.26.1.52.22.78.33.72.91,1.27,1.61,1.55l5.19,1.99c.59.22,1.24.21,1.75-.02.77-.34,1.3-1.08,1.36-1.92l2.42-26.78c.01-.13.1-.53.16-.69l3.39-8.84c8.57,3.04,16.67,5.53,23.52,7.23.63.16,1.25.31,1.86.45l5.88,17.26c.02.08.05.18.1.3.36.75.99,1.36,1.77,1.68l2.42.93c.59.23,1.24.21,1.76-.02.81-.35,1.34-1.17,1.34-2.04l.34-14.14c0-.12.08-.47.12-.59l.53-1.4c.98-.08,1.8-.25,2.44-.53.87-.39,1.49-1,1.8-1.77v-.06s.01-.02.01-.02c.29-.78.25-1.62-.15-2.5-.3-.63-.77-1.29-1.45-2.02l.55-1.42c.04-.11.22-.41.3-.5l9.17-10.72c.6-.67.75-1.61.4-2.4v-.02c-.25-.55-.71-.97-1.29-1.2l-2.48-.94c-.76-.27-1.63-.24-2.41.1-.09.04-.17.08-.2.1l-15.97,8.93c-.54-.3-1.1-.6-1.68-.91-6.23-3.31-13.93-6.87-22.32-10.34l3.39-8.85c.06-.14.26-.5.35-.62l16.07-21.49c.52-.67.64-1.57.29-2.34-.24-.56-.7-.99-1.29-1.21l-5.21-2.01c-.7-.25-1.48-.22-2.21.1-.25.11-.47.25-.66.41l-8.84,7.6-3.59-1.38c-.6-.24-1.29-.22-1.88.05-.6.27-1.05.75-1.29,1.36l-1.01,2.64c-.23.6-.21,1.28.05,1.87.23.51.61.92,1.09,1.17l-1.25,1.06-3.92-1.5c-.6-.23-1.28-.21-1.88.06-.6.27-1.06.75-1.29,1.36l-1.01,2.62c-.23.61-.21,1.3.05,1.89.27.6.77,1.07,1.37,1.29h.02s-8.68,7.48-8.68,7.48c-1.45-.6-2.83-1.16-4.13-1.7-7.58-3.14-13.06-5.41-18.03-6.54h0ZM799.56,373.3"/>
  <path class="cls-4" d="M728.1,98.23c6.29.59,11.96-.23,15.17-2.18,1.03-.64,1.72-1.35,2.08-2.11.05-.09.17-.32.25-.63.07-.32.07-.57.06-.62.03-.9-.26-1.83-.9-2.87-1.96-3.19-6.63-6.5-12.5-8.83-4.75-1.9-10.57-3.13-18.62-4.85-1.37-.3-2.81-.6-4.32-.93l-2.92-11.07h.04c.63.15,1.31.04,1.84-.29.56-.34.97-.9,1.12-1.52l.66-2.73c.15-.63.05-1.31-.29-1.86-.35-.56-.89-.96-1.53-1.11l-4.07-.98-.42-1.59c.54.07,1.1-.06,1.55-.33.56-.34.96-.89,1.11-1.53l.67-2.74c.15-.62.04-1.3-.31-1.86-.34-.56-.88-.95-1.51-1.09l-3.74-.9-2.97-11.26c-.07-.26-.17-.5-.32-.74-.42-.67-1.06-1.15-1.79-1.33l-5.4-1.3c-.61-.15-1.25-.05-1.74.25-.72.44-1.15,1.24-1.1,2.08l1.07,26.87c0,.13-.03.54-.07.71l-2.21,9.2c-8.89-1.9-17.25-3.32-24.26-4.12-.65-.08-1.28-.14-1.9-.2l-8.07-16.35c-.03-.08-.08-.17-.14-.28-.46-.7-1.16-1.22-1.97-1.44l-2.51-.61c-.62-.15-1.26-.05-1.75.25-.76.45-1.17,1.33-1.06,2.2l1.49,14.06c.01.12-.02.47-.05.6l-.35,1.45c-.96.2-1.75.49-2.35.85-.82.5-1.35,1.19-1.55,1.99v.06s0,.02,0,.02c-.18.81-.03,1.64.47,2.46.38.59.93,1.18,1.7,1.81l-.36,1.48c-.03.11-.17.43-.23.54l-7.71,11.81c-.5.74-.54,1.7-.09,2.44v.02c.32.51.83.87,1.44,1.02l2.58.62c.79.17,1.65.03,2.38-.41.08-.05.16-.1.19-.12l14.68-10.92c.58.23,1.18.45,1.79.69,6.61,2.48,14.71,5.01,23.47,7.36l-2.21,9.21c-.04.15-.19.53-.27.67l-13.15,23.39c-.43.73-.43,1.64.02,2.36.31.52.82.89,1.44,1.03l5.43,1.32c.73.16,1.49.02,2.18-.39.23-.14.43-.31.6-.49l7.79-8.68,3.74.9c.63.15,1.31.04,1.86-.29.56-.34.95-.88,1.11-1.52l.66-2.75c.15-.63.04-1.3-.29-1.85-.29-.47-.73-.84-1.23-1.02l1.1-1.21,4.08.98c.63.15,1.3.04,1.86-.3.56-.34.95-.88,1.1-1.51l.66-2.73c.15-.63.04-1.31-.3-1.87-.34-.56-.9-.96-1.52-1.1h-.02s7.64-8.54,7.64-8.54c1.51.4,2.96.78,4.32,1.15,7.93,2.13,13.65,3.67,18.72,4.15h0ZM728.1,98.23"/>
  <path class="cls-4" d="M1081.85,378.49c3.11,5.49,7.03,9.67,10.47,11.19,1.12.48,2.09.64,2.92.5.1,0,.37-.04.66-.16.31-.12.5-.27.54-.3.75-.49,1.36-1.26,1.84-2.38,1.49-3.43,1.53-9.15.09-15.31-1.16-4.98-3.48-10.46-6.68-18.04-.54-1.29-1.12-2.64-1.71-4.07l7.41-8.73.02.04c.24.6.72,1.1,1.29,1.34.6.27,1.29.28,1.89.05l2.61-1.02c.61-.24,1.1-.71,1.36-1.31.26-.61.28-1.28.04-1.89l-1.53-3.9,1.06-1.25c.26.48.68.87,1.16,1.08.61.26,1.28.28,1.89.04l2.63-1.02c.59-.23,1.08-.71,1.35-1.32.27-.61.28-1.27.03-1.87l-1.41-3.58,7.54-8.89c.17-.2.31-.42.43-.68.31-.73.33-1.53.06-2.23l-2.03-5.17c-.23-.59-.68-1.05-1.2-1.28-.77-.34-1.67-.23-2.34.29l-21.42,16.25c-.1.08-.46.29-.62.35l-8.81,3.45c-3.53-8.38-7.15-16.05-10.5-22.25-.31-.58-.61-1.13-.92-1.68l8.79-15.98c.05-.07.1-.16.15-.27.31-.77.34-1.65.05-2.44l-.94-2.41c-.23-.59-.68-1.06-1.21-1.29-.8-.37-1.76-.2-2.41.39l-10.68,9.27c-.09.08-.4.26-.51.3l-1.39.55c-.72-.68-1.4-1.16-2.04-1.45-.88-.38-1.75-.43-2.52-.13l-.05.03h-.02c-.77.32-1.36.92-1.74,1.8-.27.65-.44,1.44-.51,2.43l-1.42.55c-.11.04-.45.11-.57.12l-14.1.44c-.9.01-1.7.53-2.05,1.32v.02c-.25.55-.25,1.18-.03,1.76l.97,2.47c.31.74.92,1.37,1.7,1.71.09.04.17.07.21.08l17.36,5.79c.14.61.3,1.22.46,1.86,1.76,6.84,4.31,14.92,7.39,23.46l-8.82,3.45c-.14.06-.55.15-.7.16l-26.71,2.6c-.85.07-1.59.58-1.93,1.37-.25.56-.26,1.19-.02,1.77l2.03,5.21c.29.69.83,1.23,1.57,1.56.24.11.5.18.74.21l11.57,1.42,1.4,3.58c.23.6.71,1.1,1.3,1.36.6.26,1.26.27,1.88.04l2.63-1.03c.6-.24,1.09-.71,1.35-1.3.22-.51.27-1.07.13-1.6l1.62.21,1.53,3.91c.24.6.71,1.09,1.31,1.35.6.26,1.26.28,1.87.04l2.62-1.02c.61-.24,1.1-.72,1.36-1.31.26-.6.28-1.29.03-1.88v-.03s11.37,1.38,11.37,1.38c.53,1.47,1.05,2.88,1.53,4.2,2.79,7.72,4.8,13.3,7.32,17.73h0ZM1081.85,378.49"/>
</svg>